<svg version="1.1" xmlns="http://www.w3.org/2000/svg" viewBox="0 0 1097.5000915527344 587.6669921875" width="1097.5000915527344" height="587.6669921875">
  <!-- svg-source:excalidraw -->
  
  <defs>
    <style class="style-fonts">
      @font-face {
        font-family: "Virgil";
        src: url("https://unpkg.com/@excalidraw/excalidraw@0.14.2/dist/excalidraw-assets/Virgil.woff2");
      }
      @font-face {
        font-family: "Cascadia";
        src: url("https://unpkg.com/@excalidraw/excalidraw@0.14.2/dist/excalidraw-assets/Cascadia.woff2");
      }
    </style>
  </defs>
  <rect x="0" y="0" width="1097.5000915527344" height="587.6669921875" fill="#ffffff"></rect><g stroke-linecap="round" transform="translate(956.1665954589844 71.66673278808594) rotate(0 49.8333740234375 105.5000381469726)"><path d="M0.55 1.55 C23.08 -2.77, 46.37 0.12, 101.07 1.25 M-1 -0.94 C20.97 -0.39, 43.99 0.19, 100.66 -0.85 M100.97 -1.48 C97.64 51.04, 99.53 106.82, 99.82 210.11 M99.96 -0.87 C99.69 43.88, 100.88 87.81, 100.26 210.6 M100.02 211.94 C74.25 211.44, 52.66 209.51, -0.54 209.49 M100.02 210.65 C61.09 211.14, 21.28 211.47, -0.33 210.96 M-0.25 212.66 C-1.16 150.57, -0.84 86.79, -0.38 1.66 M0.69 211.48 C0.83 141.17, 0.99 69.8, 0.7 0.8" stroke="#000000" stroke-width="1" fill="none"></path></g><g transform="translate(888.1665954589844 10) rotate(0 51.5 10)"><text x="0" y="14" font-family="Virgil, Segoe UI Emoji" font-size="16px" fill="#000000" text-anchor="start" style="white-space: pre;" direction="ltr">global_data:</text></g><g transform="translate(501.5000305175781 97.66668701171875) rotate(0 137 10)"><text x="0" y="14" font-family="Virgil, Segoe UI Emoji" font-size="16px" fill="#000000" text-anchor="start" style="white-space: pre;" direction="ltr">WASMModuleInstanceExtra::globals</text></g><g mask="url(#mask-I86Qg5wzdmE77J5SbA7HP)" stroke-linecap="round"><g transform="translate(732.3803958894038 246.1419875348965) rotate(0 111.7857120288877 -76.38810235405538)"><path d="M1.1 0.98 C45.43 -31.25, 92.72 -64.96, 221.97 -153.76 M0.78 -0.66 C60.08 -42.22, 120.77 -82.53, 222.79 -152.71" stroke="#000000" stroke-width="1" fill="none"></path></g><g transform="translate(732.3803958894038 246.1419875348965) rotate(0 111.7857120288877 -76.38810235405538)"><path d="M206.73 -127.07 C207.47 -132.28, 212.86 -140.42, 220.91 -154.64 M206.32 -129.17 C209.53 -135.52, 214.36 -140.87, 221.96 -153.31" stroke="#000000" stroke-width="1" fill="none"></path></g><g transform="translate(732.3803958894038 246.1419875348965) rotate(0 111.7857120288877 -76.38810235405538)"><path d="M195.14 -144.01 C198.15 -145.79, 205.92 -150.46, 220.91 -154.64 M194.73 -146.11 C201.11 -147.89, 209.08 -148.65, 221.96 -153.31" stroke="#000000" stroke-width="1" fill="none"></path></g></g><mask id="mask-I86Qg5wzdmE77J5SbA7HP"><rect x="0" y="0" fill="#fff" width="1055.8290730395638" height="498.39211935369804"></rect><rect x="817.6047344644838" y="160.01692162549563" fill="#000" width="53" height="20" opacity="1"></rect></mask><g transform="translate(817.6047344644837 160.01692162549568) rotate(0 26.561373453807732 9.736963555345426)"><text x="26.5" y="14" font-family="Virgil, Segoe UI Emoji" font-size="16px" fill="#000000" text-anchor="middle" style="white-space: pre;" direction="ltr">offset</text></g><g stroke-linecap="round" transform="translate(959.8332824707031 89.33332824707031) rotate(0 45.833343505859375 14)"><path d="M0 0 C0 0, 0 0, 0 0 M0 0 C0 0, 0 0, 0 0 M-0.86 7.13 C1.84 4.4, 2.51 3.16, 4.4 0.94 M-0.61 6.17 C0.7 5.01, 1.93 3.38, 4.8 0.15 M-0.29 12.96 C2.61 8.66, 8.92 3.44, 11.94 -0.28 M-0.25 12.38 C3.69 8.98, 7.1 5.25, 11.32 0.58 M1.67 17.5 C6.69 9.81, 13.94 4.43, 14.97 0.01 M-0.84 17.95 C3.01 13.01, 8.56 9.14, 16.21 0.21 M-1.18 23.27 C6.8 15.93, 14.82 5.6, 19.3 0.07 M-0.5 24.14 C4.67 17.97, 10.53 11.71, 21.6 0.87 M3.03 27.33 C7.25 20.35, 17.1 12.02, 25.84 1.69 M2.11 29.47 C11.47 19.28, 20.47 8.25, 25.85 -0.37 M6.57 30.91 C14.28 23.78, 19.53 15.2, 33.31 -1.67 M6.84 28.62 C11.52 23.03, 19.33 15.12, 31.08 -0.26 M12.19 27.9 C21.26 18.18, 27.49 8.91, 35.46 0 M11.55 29.92 C20.57 18.75, 29.1 7.68, 36.61 -0.16 M15.75 29.92 C26.71 17.96, 31.93 9.44, 42.34 0.17 M17.12 28.58 C26.29 18.72, 37.25 6.03, 41.64 -0.05 M22.9 30.6 C29.33 20.02, 33.36 12.37, 49.09 0.72 M23.57 27.91 C29.26 21.97, 33.81 15.32, 48.48 0.55 M25.9 30.47 C37.79 20.55, 47.44 9.33, 53.33 -1.12 M27.29 28.45 C34.7 22.09, 41.14 13.93, 53.28 0.55 M32.96 27.89 C40.05 18.17, 50.15 10.67, 59.88 0.19 M33.75 27.93 C42.21 18.12, 50.36 9.95, 57.24 0.4 M37.04 28.03 C44.23 22.43, 51.73 12.78, 62.15 1.38 M38.7 28.33 C43.35 22.88, 48.47 18.37, 63.32 0.05 M45.13 29.77 C50.54 17, 62.45 9.21, 66.89 -0.64 M42.94 27.91 C51.95 20.43, 60.13 11.62, 69.46 0.01 M47.1 30.68 C55.06 18.39, 66.2 12.95, 75.55 -1.86 M49.49 28.25 C56.26 20.58, 64.84 11.13, 75.33 -0.6 M53.02 29.88 C63.98 16.64, 74.85 6.12, 81.07 1.78 M54.32 28.26 C61.78 20.75, 69.29 10.8, 79.52 0.94 M57.93 29.08 C69.2 17.54, 79.68 5.19, 85.2 1.28 M59.58 29.22 C65 21.72, 71.54 14.44, 84.24 -0.98 M63.19 27.43 C72.56 17.07, 82.41 10.69, 91.31 -0.42 M64.33 28.83 C72.99 19.8, 80.7 10.81, 90.58 0.7 M69.27 30.51 C77.98 22.41, 86 14.04, 91.72 0.73 M69.71 28.2 C78.57 19.06, 88.84 8.64, 93.24 2.04 M77.08 29.22 C84.17 19.68, 87.62 13.29, 95.82 7.04 M75.73 27.91 C80.93 23.17, 84.62 16.9, 95.05 7.31 M80.77 28.8 C85.69 23.36, 88.11 18.35, 92.01 13.31 M80.42 29.07 C84.12 24.64, 87.08 22.53, 94.29 14.31 M85.64 28.13 C88.31 25.75, 90.94 23.51, 94.49 20.85 M86.48 29.01 C88.56 25.94, 91.67 22.25, 93.07 20.68" stroke="#868e96" stroke-width="0.5" fill="none"></path><path d="M-1.6 1.14 C32.29 -2.57, 62.29 -2.5, 91.09 0.26 M-0.5 -0.53 C29.7 1.51, 59.38 0.18, 90.68 0.48 M89.86 0.5 C91.09 11.02, 89.71 19.71, 90.97 29.69 M91.08 0.95 C91.4 6.76, 92.32 12.5, 92.11 28.57 M93.51 27.93 C69.11 28.01, 45.48 28.29, 0.11 27.48 M91.59 28.93 C59.81 27.82, 30.59 28.29, 0.66 28.5 M0.69 26.99 C-0.44 22.81, 1.14 14.21, 1.69 0.11 M0.63 28.14 C-1.16 19.73, -0.76 11.85, -1 -0.68" stroke="#000000" stroke-width="1" fill="none"></path></g><g stroke-linecap="round" transform="translate(957.8332214355469 124.50000762939453) rotate(0 47.16668701171875 9.666679382324219)"><path d="M0 0 C0 0, 0 0, 0 0 M0 0 C0 0, 0 0, 0 0 M0.47 7.03 C0.91 4.57, 2.83 2.45, 5.57 -0.1 M-0.49 6.13 C1.73 3.93, 3.48 1.85, 4.78 0.57 M1.05 10.85 C4.46 9.51, 6.97 5.43, 10.38 -0.01 M0.47 12.35 C3.18 9.82, 5.54 7.14, 11.24 0.73 M-1.07 18.88 C1.93 15.72, 7.23 9.58, 15.31 -0.5 M-0.62 17.5 C3.88 13.6, 9.48 8.15, 15.5 0.95 M1.42 20.78 C8.85 14.41, 13.29 6.15, 21.4 -1.19 M2.3 21.03 C7.17 15.99, 11.95 10.47, 22.2 -0.21 M6.24 20.24 C12.97 16.43, 18.37 8.13, 27.65 1.73 M8.37 22.17 C13.55 16.34, 17.89 10.07, 25.59 -0.43 M14.45 23.66 C17.98 18.5, 20.06 14.07, 30.33 -1.21 M12.15 20.88 C20.43 14.66, 26.38 5.54, 31.74 0.12 M17.47 22.7 C22.71 14.28, 28.42 6.76, 36.63 1.35 M19.49 21.07 C23.34 15.29, 27.27 10.1, 36.46 0.5 M24.12 23.32 C28.1 13.02, 35.51 7.03, 42.83 1.6 M22.78 21.11 C29.38 16.32, 33.13 9.2, 42.61 -0.56 M30.84 21.82 C33.98 12.07, 40.08 8.27, 48 -1.3 M28.15 22.3 C33.12 15.93, 37.36 11.83, 47.83 0.81 M35.33 22.98 C43.05 15.5, 49.43 5.79, 52.2 -1.22 M33.31 22.34 C38.83 17.26, 42.51 11.41, 53.87 0.08 M38.79 20.03 C43.73 15.94, 50.87 10.85, 58.14 1.04 M38.83 21.77 C44.39 14.94, 51.56 7.65, 58.35 -0.18 M43.56 20.79 C50.27 16.41, 52.94 9.68, 65.36 -2.2 M43.86 21.48 C48.56 16.48, 54.21 11.32, 64.04 0.15 M51.34 19.67 C54.16 16.27, 61.94 5.66, 67.98 0.56 M49.48 21.15 C55.01 17.08, 59.23 13.29, 68.63 0.21 M56.87 19.79 C57.46 18.79, 64.9 13.98, 72.8 0.05 M54.45 20.74 C59.83 16.77, 63.44 13.67, 74.05 0.59 M62.11 20.98 C63.92 17.73, 68.47 13.69, 81.06 0.32 M60.49 20.93 C67.96 13.72, 73.01 7.36, 80.22 0.9 M65.94 21.92 C72.77 14.58, 78.75 5.31, 86.6 -1.22 M66.08 20.62 C71.38 14.53, 76.88 8.51, 84.34 0.11 M70.32 20.12 C74.46 16.24, 82.55 11.72, 89.53 0.3 M71.72 21.38 C77.24 15, 82.8 8.95, 90.65 0.13 M78.03 22.05 C82.26 18.31, 86.21 10.38, 93.79 1.96 M75.72 20.93 C80.56 18.06, 84.11 12.51, 95.1 0.97 M82.76 23.06 C84.54 15.77, 89.3 14.08, 94.23 6.22 M81.51 21.57 C86.77 15.37, 90.56 12.01, 94.48 7.22 M87.1 21.78 C88.71 18.49, 90.59 16.31, 94.74 11.72 M87.26 21.68 C88.68 19.39, 91.49 17.38, 95.34 12.82" stroke="#868e96" stroke-width="0.5" fill="none"></path><path d="M1.14 0.2 C32.93 -1.13, 67.92 0.18, 94.59 0.57 M-0.53 -0.41 C38.42 -0.37, 74.77 -0.52, 94.81 0.7 M94.82 -0.58 C94.87 4.05, 93.26 11.25, 95.96 18.08 M95.25 -0.44 C94.42 7.55, 93.6 14.62, 94.88 18.83 M94.27 19.52 C69.29 19.51, 43.81 20.31, -0.52 20.1 M95.27 18.49 C69.03 20.2, 44.34 19.92, 0.5 18.75 M-0.98 18.85 C1.34 14.99, -0.43 10.19, 0.11 -0.1 M0.13 18.43 C-0.19 11.47, 0.18 3.69, -0.66 -0.45" stroke="#000000" stroke-width="1" fill="none"></path></g><g mask="url(#mask-PFkOKGbMOcdhcpcv4DutQ)" stroke-linecap="round"><g transform="translate(727.2050086321542 464.0001220703125) rotate(0 110.16582959061594 -171.5074190704382)"><path d="M-1.11 -1.05 C46.33 -75.61, 96.03 -150.15, 221.44 -342.55 M0.41 -0.47 C55.8 -85.52, 111.52 -170.05, 220.38 -341.89" stroke="#000000" stroke-width="1" fill="none"></path></g><g transform="translate(727.2050086321542 464.0001220703125) rotate(0 110.16582959061594 -171.5074190704382)"><path d="M211.89 -314.49 C213.22 -319.63, 216.84 -324.93, 222.37 -343.58 M214.62 -313.44 C215.07 -320.89, 217.77 -326.53, 220.47 -342.4" stroke="#000000" stroke-width="1" fill="none"></path></g><g transform="translate(727.2050086321542 464.0001220703125) rotate(0 110.16582959061594 -171.5074190704382)"><path d="M194.58 -325.52 C199.78 -328.25, 207.21 -331.12, 222.37 -343.58 M197.32 -324.47 C202.04 -329.09, 209.06 -331.97, 220.47 -342.4" stroke="#000000" stroke-width="1" fill="none"></path></g></g><mask id="mask-PFkOKGbMOcdhcpcv4DutQ"><rect x="0" y="0" fill="#fff" width="1047.5391498982826" height="905.6099774193574"></rect><rect x="810.8720792652184" y="283.19519439579005" fill="#000" width="53" height="20" opacity="1"></rect></mask><g transform="translate(810.8720792652184 283.19519439579005) rotate(0 26.49875895755173 9.297508604084243)"><text x="26.5" y="14" font-family="Virgil, Segoe UI Emoji" font-size="16px" fill="#000000" text-anchor="middle" style="white-space: pre;" direction="ltr">offset</text></g><g transform="translate(890.5000915527344 33) rotate(0 98.5 10)"><text x="0" y="14" font-family="Virgil, Segoe UI Emoji" font-size="16px" fill="#000000" text-anchor="start" style="white-space: pre;" direction="ltr">hold values of GLOBALs</text></g><g stroke-linecap="round" transform="translate(521.6666564941406 125.33341979980469) rotate(0 114.33334350585932 149.83334350585938)"><path d="M-1.59 0.12 C63.53 1.16, 125.8 0.88, 228.3 -1.58 M-0.49 0.72 C83.14 0.58, 165.59 0.39, 228.72 -0.68 M228.05 0.19 C230.78 97.55, 231.13 196.94, 228.37 298.49 M229.01 -0.41 C227.17 102.47, 227.64 204.61, 228.88 300.01 M228.15 298.78 C172.04 302.26, 113.15 302.1, 0.04 299.34 M227.92 300.26 C172.55 299.52, 117.07 299.47, 0.76 299.1 M0.58 299.36 C-2.33 219.38, -2.11 140.84, 0.55 -1.2 M0.73 299.01 C-0.21 214.76, -0.05 130.28, 0.5 0.34" stroke="#000000" stroke-width="1" fill="none"></path></g><g stroke-linecap="round" transform="translate(544.3333435058594 161.0000457763672) rotate(0 95 15)"><path d="M0.58 0.94 C52.11 3.07, 107.13 1.02, 188.96 1.83 M0.02 -0.19 C73.57 -1.35, 148.17 -2.42, 190.7 -0.29 M191.77 -1.34 C189.36 10.09, 191.42 18.91, 189.58 28.37 M190.38 -0.82 C189.63 7.41, 189.84 16.01, 189.11 29.42 M191.36 30.92 C137.09 31.66, 85.12 31.88, -0.97 29.15 M189.7 29.76 C145.28 28, 101.79 28.79, 0.7 29.11 M0.55 31.41 C0.23 20.18, -0.74 13.86, 0.49 -1.28 M-0.65 30.53 C-0.34 24.23, 0.31 16.69, 0.65 -0.51" stroke="#000000" stroke-width="1" fill="none"></path></g><g transform="translate(594.8333435058594 166.0000457763672) rotate(0 44.5 10)"><text x="44.5" y="14" font-family="Virgil, Segoe UI Emoji" font-size="16px" fill="#000000" text-anchor="middle" style="white-space: pre;" direction="ltr">uint8 type;</text></g><g transform="translate(554.3332824707031 131.50001525878906) rotate(0 85.5 9.5)"><text x="0" y="15" font-family="Cascadia, Segoe UI Emoji" font-size="16px" fill="#000000" text-anchor="start" style="white-space: pre;" direction="ltr">WASMGlobalInstance</text></g><g stroke-linecap="round" transform="translate(541.6666564941406 198.3334197998047) rotate(0 97.5 15)"><path d="M1.45 -1.09 C51.71 -2.19, 101.94 -2.61, 193.77 1.56 M-0.59 -0.42 C59.44 -0.88, 118.48 -0.15, 195.31 0.47 M196.98 -0.49 C195.9 11.2, 193.22 20.47, 194.78 29.61 M195.14 0.4 C194.98 7.1, 195.78 14.26, 195.92 29.43 M195.61 31.66 C120.22 29.8, 42.61 32.44, -1.3 28.71 M194.82 30.68 C151.01 30.22, 107.86 30.2, 0.56 29.59 M1.51 30.2 C-0.33 24.22, 0.56 17.81, -0.89 1.45 M0.56 29.53 C-1.18 21.67, -1.09 12.31, -0.18 0.99" stroke="#000000" stroke-width="1" fill="none"></path></g><g transform="translate(574.1666564941406 203.3334197998047) rotate(0 65 10)"><text x="65" y="14" font-family="Virgil, Segoe UI Emoji" font-size="16px" fill="#000000" text-anchor="middle" style="white-space: pre;" direction="ltr">bool is_mutable;</text></g><g stroke-linecap="round" transform="translate(543.0000305175781 234.3334197998047) rotate(0 97.5 15)"><path d="M-1.39 -0.67 C66.17 0.45, 135.48 -1.5, 194.64 1.48 M-0.3 0.92 C52.43 0.32, 104.34 0.81, 195.51 0.73 M194.15 1.8 C195.72 8.38, 194.32 13.05, 195.28 29.8 M195.11 0.28 C194.98 10.03, 194.92 18.18, 195.49 30.17 M194.16 28.77 C130.18 28.8, 66.97 28.6, -1.46 29.21 M195.93 30.24 C120.16 30.99, 44.24 32.63, 0.65 30.09 M-1.48 30.89 C0.39 21.02, -0.94 13.31, 0.54 -1.03 M-0.89 29.35 C-0.63 21.53, -0.14 13.36, -0.34 0.92" stroke="#000000" stroke-width="1" fill="none"></path></g><g transform="translate(556.0000305175781 239.3334197998047) rotate(0 84.5 10)"><text x="84.5" y="14" font-family="Virgil, Segoe UI Emoji" font-size="16px" fill="#000000" text-anchor="middle" style="white-space: pre;" direction="ltr">uint32 data_offset;</text></g><g stroke-linecap="round" transform="translate(551.0000305175781 271.00006103515625) rotate(0 90.16665649414062 15)"><path d="M-0.67 0.54 C59.04 0.08, 119.98 -0.63, 178.56 -1.29 M-0.19 -0.34 C43.16 0.93, 84.33 0.44, 180.16 0.05 M180.79 1.7 C181.15 7.79, 181.88 16.9, 181.7 30.4 M180.79 -0.15 C180.52 7.13, 180.89 12.05, 180.47 30.48 M182.24 29.47 C110.35 33.15, 38.87 31, 0.6 29.52 M181.12 30.82 C144.46 30.37, 108.3 30.18, -0.91 29.9 M1.71 28.15 C-0.89 19.69, -0.44 8.32, 1.85 -0.41 M-0.17 29.1 C0.08 23.35, 0.24 17.47, -0.02 0.03" stroke="#000000" stroke-width="1" fill="none"></path></g><g transform="translate(592.1666870117188 276.00006103515625) rotate(0 49 10)"><text x="49" y="14" font-family="Virgil, Segoe UI Emoji" font-size="16px" fill="#000000" text-anchor="middle" style="white-space: pre;" direction="ltr">initial_value</text></g><g stroke-linecap="round" transform="translate(543.0000305175781 320.3333740234375) rotate(0 95.5 15)"><path d="M1.64 0.73 C73.54 -0.61, 146.51 -3.31, 190.81 1.46 M-0.92 -0.4 C63.71 -1.81, 126.9 -0.71, 190.8 -0.75 M189.2 0.68 C191.47 12.56, 193.2 23.11, 191.07 28.4 M191.78 0.65 C190.76 8.35, 190.63 16.85, 190.22 30.78 M190.49 31.37 C150.67 31.06, 111.42 31.84, -0.52 30.74 M191.92 29.84 C148.02 30.04, 104.69 30.72, 0.46 31 M-0.07 31.18 C-1.34 20.31, -1.78 8.87, 1.37 1.07 M0.08 30.89 C-0.9 18.25, 0.71 7.8, -0.13 -0.69" stroke="#000000" stroke-width="1" fill="none"></path></g><g transform="translate(561.5000305175781 325.3333740234375) rotate(0 77 10)"><text x="77" y="14" font-family="Virgil, Segoe UI Emoji" font-size="16px" fill="#000000" text-anchor="middle" style="white-space: pre;" direction="ltr">import_module_inst</text></g><g stroke-linecap="round" transform="translate(546.3333435058594 363.00006103515625) rotate(0 92 15)"><path d="M1.64 0.35 C53.1 2.92, 104.74 1.32, 183.31 -0.07 M-0.86 -0.99 C66.72 0.64, 132.9 -0.02, 184.76 0.08 M185.34 1.52 C183.46 10.29, 183.37 22.2, 182.09 31.53 M184.93 -0.88 C184.76 11.19, 184.05 20.54, 183.56 29.77 M185.2 29.03 C118.46 32.64, 50.8 31.34, -1.75 31.1 M183.8 29.86 C119.1 30.13, 53.07 28.63, 0.37 30.77 M-0.66 28.39 C0.52 19.71, 1.47 12.11, -0.6 1.55 M0.78 30.18 C-0.37 18.49, -0.38 7.02, 0.3 -0.51" stroke="#000000" stroke-width="1" fill="none"></path></g><g transform="translate(564.3333435058594 368.00006103515625) rotate(0 74 10)"><text x="74" y="14" font-family="Virgil, Segoe UI Emoji" font-size="16px" fill="#000000" text-anchor="middle" style="white-space: pre;" direction="ltr">import_global_inst</text></g><g transform="translate(206.00006103515628 228.33351135253906) rotate(0 118.49999999999999 10)"><text x="0" y="14" font-family="Virgil, Segoe UI Emoji" font-size="16px" fill="#000000" text-anchor="start" style="white-space: pre;" direction="ltr">WASMGlobalInstance *globals;</text></g><g transform="translate(614.3333435058594 404.66680908203125) rotate(0 14.5 10)"><text x="0" y="14" font-family="Virgil, Segoe UI Emoji" font-size="16px" fill="#000000" text-anchor="start" style="white-space: pre;" direction="ltr">[0]</text></g><g stroke-linecap="round" transform="translate(521.9999694824219 426.6667175292969) rotate(0 113.5 43.5)"><path d="M0 0 C0 0, 0 0, 0 0 M0 0 C0 0, 0 0, 0 0 M0.18 6.59 C0.53 4.24, 2.14 2.54, 5.4 0.03 M-0.03 6.77 C1.88 4.13, 3.19 2.42, 5.31 0.46 M0.03 11.37 C3.17 8.14, 6.85 2.31, 9.24 -1.62 M0.74 11.53 C2.98 8.38, 7.29 4.29, 10.37 0.04 M-1.56 17.63 C7.88 12.61, 14.46 3.46, 15.26 1.92 M-0.69 18.26 C4.5 13.7, 8.53 9.08, 15.93 0.71 M-1.58 25.01 C8.83 16.98, 17.43 6.73, 21.27 -0.58 M0.99 24.38 C6.83 14.85, 15.92 7.57, 21.3 -0.76 M0.16 28.75 C6.18 23.52, 12.92 15.79, 26.26 1.87 M-0.92 30.78 C7.18 20.81, 16.3 11.81, 26.2 -0.5 M1.67 36.29 C6.76 28.52, 14.14 18.17, 33.3 -1.29 M-0.49 37.41 C12.29 21.66, 24.89 8.17, 31.21 0.1 M0.03 42.12 C8.2 32.96, 16.6 23.57, 35.12 0.2 M-0.66 42.98 C9.23 32, 17.65 22.16, 36.79 0.09 M0.67 50.81 C13.79 32.71, 29.87 15.14, 42.66 0.12 M-0.81 48.87 C11.27 34.85, 23.4 22.71, 42.94 0.53 M1.22 56.48 C16.87 38.89, 29.09 18.5, 47.06 -1.42 M0.23 55.49 C17.8 34.87, 34.96 13.35, 48.32 0.16 M1.5 61.53 C14.28 45.58, 29.25 27.14, 52.14 0.74 M-0.75 61.92 C12.2 46.69, 24.28 34.22, 53.84 -1.02 M-0.63 68.19 C21.41 39.82, 47.72 14.69, 56.43 -0.43 M-0.31 68.27 C14.84 49.62, 31.03 32.13, 57.83 -0.06 M0.01 73.48 C17.43 55.22, 33.28 35.48, 65.66 -1.43 M0 73.56 C14.7 58.52, 26.95 42.95, 63.66 0.48 M1.21 80.24 C20.63 52.57, 43.27 29.26, 70.73 -1.42 M0.06 79.59 C21.69 54.49, 43.21 30.22, 68.84 0.24 M1.18 84.6 C23.29 62.43, 44.92 37.05, 76.25 0.48 M0.17 85.34 C15.26 65.83, 30.88 47.89, 74.64 0.61 M2.58 88.48 C23.16 64.71, 43.41 40.82, 78.54 -0.06 M2.11 88.28 C31.83 53.08, 63.03 18.63, 79.26 0.42 M6.33 89.38 C38.58 54.1, 69.12 15.58, 86.09 -1.8 M8.17 89.07 C29.74 62.73, 51.16 38.12, 85.42 -0.48 M13.72 87.62 C44.37 55.18, 73.3 19.52, 89.6 0.81 M12.31 89.67 C30.68 68.93, 47.35 49.62, 89.48 0.42 M18.75 88.04 C34.28 70.28, 53.21 49.69, 94.47 0.35 M17.68 87.95 C41.08 61.98, 62.88 35.81, 95.08 -0.09 M22.89 90.56 C44.78 61.67, 71.87 35.61, 98.77 -0.76 M22.47 89.05 C54.35 55.42, 83.8 20.49, 100.29 0.71 M27.52 88.89 C46.83 65.14, 67.73 44.55, 105.79 0.42 M29.49 89.01 C44.41 70.15, 61.56 50.08, 107.17 -0.95 M32 89.31 C59 61.49, 83.17 32.83, 110.01 -1.83 M33.35 88.42 C56.56 61.09, 80.38 34.57, 110.95 0.35 M38.11 89.38 C58.65 68.4, 77.5 45.52, 116.95 1.54 M40.08 88.03 C58.94 64.87, 79.75 41.24, 116.97 -0.47 M44.09 88.73 C66.67 61.12, 92.74 35.8, 120.44 1.4 M44.19 88.38 C64.74 65, 85.07 41.48, 121.13 0.95 M49.12 87.79 C75.55 55.25, 105.49 27.47, 127.93 1.42 M50.38 89.39 C74.25 62.55, 96.29 34.49, 126.22 0.24 M55.33 90.56 C71.9 69.87, 89.94 48.09, 132.29 1.6 M54.62 88.06 C73.93 68.73, 90.89 47.99, 132.96 0.7 M60.29 87.31 C78.5 68.69, 98.61 46.78, 137.85 0.95 M61.77 88.02 C81.71 66.13, 101.69 42.97, 137.08 0.9 M67.01 89.41 C89.39 63.24, 113.61 33.73, 144.89 0.32 M66.74 89.19 C95.52 54.93, 125.02 21.09, 142.99 0.32 M72.47 87.99 C98.5 60.03, 126.73 25.44, 147.64 1.11 M72.06 89.39 C94.53 62.96, 118.17 35.47, 148.84 1.01 M77.55 88.77 C107.37 54.53, 136.51 22.3, 154.75 0.01 M77.07 88.01 C105.98 52.62, 137.64 18.56, 154.22 -0.87 M82.97 87.51 C96.79 67.68, 112.7 48.83, 159.33 -0.23 M80.83 88.32 C102.88 64.34, 124.68 38.87, 159.21 0.66 M86.49 89.02 C110.02 59.24, 134.79 33.67, 163.45 -0.05 M86.58 89.38 C115.58 56.48, 146.02 23.24, 164.08 -1.02 M92.23 90.17 C120.57 55.6, 153.15 20.05, 168.1 -0.34 M92.08 89.92 C114.1 64.05, 134.45 40.53, 170.35 0.51 M98.49 87.38 C116.62 67.68, 138.52 44.83, 173.72 0.32 M96.66 88.69 C121.5 63.49, 143.27 35.04, 174.44 0.31 M103.8 87.4 C125.63 64, 144.52 40.58, 178.22 0.41 M102.28 90.11 C123.07 67.29, 141.78 45.31, 180.83 -0.25 M107.35 89.99 C138.9 53.28, 165.63 19.96, 185.43 -1.81 M109.16 87.88 C138.37 53.03, 169.74 19.48, 185.62 0.1 M115.05 90.75 C139.38 59.3, 163.47 33.39, 191.13 -1.5 M112.97 88.63 C143.25 53.54, 175.16 17.78, 189.69 0.16 M119.98 87.81 C143.45 62.61, 165.86 33.96, 195.55 -0.53 M118.36 89.49 C145.23 58.59, 170.11 28.58, 196.34 -0.1 M124.44 88.64 C138.87 69.33, 157.77 50.21, 201.36 -0.71 M124.16 89.79 C153.41 54.42, 182.3 21.04, 200.39 0.07 M128.42 88.73 C151.82 65.47, 173.72 39.6, 206.18 -1.04 M128.96 88.6 C150.25 65.58, 169.5 41.68, 207.81 -0.17 M135.59 90.39 C157.82 63.58, 177.66 39.12, 212.57 1.04 M134.28 88.44 C160.1 59.03, 184.03 31.04, 212.83 0.38 M141.84 89.48 C156.33 68.81, 174.92 50.54, 216.55 0.36 M140.13 88.85 C169.58 54.1, 199.39 21.78, 217.63 0.57 M145.23 90.17 C167.54 61.64, 191.92 31.82, 221.56 -1.15 M144.19 90.03 C160.59 71.39, 176.75 53.5, 223.36 0.54 M150.52 87.67 C170.44 61.74, 191 41.08, 226.36 0.96 M151.43 88.45 C175.75 59.49, 201.29 29.82, 227.2 0.1 M155.2 91.03 C180.45 61.62, 203.38 35.05, 228.34 7.5 M155.21 88.52 C172.59 70.41, 189.75 49.76, 226.84 7.37 M161.9 89.81 C176.99 70.88, 191.35 53.05, 227.9 12.76 M160.92 88.17 C177.93 69.73, 192.91 52.75, 227.85 12.8 M164.48 88.9 C190.82 63.32, 213.53 35.71, 229.26 18.36 M167.09 88.49 C185.64 67.5, 205.9 43.87, 227.79 17.94 M172.5 87.24 C191.03 67.55, 209.97 43.04, 229.61 22.73 M173.04 89.34 C186.7 71.93, 199.61 57.26, 228.34 23.71 M177.18 88.58 C195.77 64.49, 217.59 41.17, 229.08 31.87 M177.99 89.03 C196.18 65.62, 215.38 44.09, 228.47 30.11 M183.99 88.21 C195.94 76.32, 207.75 60.02, 226.58 38.82 M182.7 87.87 C201.68 68.92, 218.32 47.74, 227.39 36.52 M186.54 87.75 C199.93 74.1, 214.4 61.22, 229.09 42.66 M188.55 89.84 C196.96 77.26, 206.38 67.12, 226.96 43.59 M195.16 89.85 C207.87 73.4, 218.62 58.84, 228.96 47.56 M193.24 88.2 C204.77 75.5, 218.29 60.42, 228.11 49.19 M198.89 88.97 C207.34 77.57, 219.41 67.59, 227.71 54.22 M197.83 89.14 C208.94 77.44, 219.1 66.19, 227.79 54.66 M205.28 90.88 C212.95 79.23, 223.23 69.95, 226.07 62.65 M203.77 90.11 C208.71 82.11, 215.57 75.53, 228.1 60.54 M209.72 87.65 C215.73 81.08, 218.53 74.22, 227.82 67.66 M209.3 89.74 C213.72 85.17, 217.2 79.35, 227.26 66.9 M212.69 88.67 C219.34 84.01, 220.62 79.35, 229.03 73.87 M213.83 89.68 C217.97 83.9, 220.77 79.96, 228.03 73.19 M219.61 88.4 C221.91 86.89, 225.4 84.3, 227.41 79.14 M219.18 88.94 C222.64 85.31, 225.81 82.02, 227.83 80.03 M224.15 88.83 C225.41 88.66, 225.73 87.67, 227.39 85.05 M224.77 89.36 C225.38 88.19, 226.35 86.95, 227.64 85.65" stroke="#15aabf" stroke-width="0.5" fill="none"></path><path d="M-0.99 -1.57 C61.8 -0.4, 123.73 -1.4, 226.36 -0.41 M-0.41 0.16 C72.13 -1.53, 145.34 -2.14, 226.7 -0.05 M226.97 1.15 C226.73 27.93, 226.32 56.23, 225.26 87.23 M227.49 0.36 C227.23 30.16, 227.33 58.82, 226.63 87.38 M226.15 87.76 C166.89 89.69, 108.49 87.02, 0.64 87.08 M227.42 87.65 C163.74 88.89, 99.36 88.94, 0.25 86.91 M-1.17 88.19 C0.55 67.98, -0.69 47.82, 1.19 -1.59 M-0.79 87.09 C-1.55 65.7, -0.3 44.07, -0.32 0.24" stroke="#000000" stroke-width="1" fill="none"></path></g><g stroke-linecap="round" transform="translate(538.4999694824219 445.3334045410156) rotate(0 97.5 15)"><path d="M-1.09 1.35 C66.75 1.92, 132.18 1.74, 193.7 1.48 M0.53 -0.73 C63.53 1.89, 128.73 1.94, 194.89 0.71 M196.44 0.56 C193.17 10.95, 192.91 22.81, 195.65 31.85 M195.92 -0.14 C194.38 7.86, 195.62 16.47, 194.56 30.76 M194.83 30.67 C141.6 31.47, 85.05 29.06, -0.99 30.67 M195.02 30.52 C141.59 30.2, 86.12 29.55, -0.91 29.71 M-1.61 28.24 C1.28 21.3, 2.11 7.1, 0.09 -0.62 M0.63 29.78 C-0.14 18.18, -0.7 7.7, -0.9 -0.18" stroke="#000000" stroke-width="1" fill="none"></path></g><g transform="translate(551.4999694824219 450.3334045410156) rotate(0 84.5 10)"><text x="84.5" y="14" font-family="Virgil, Segoe UI Emoji" font-size="16px" fill="#000000" text-anchor="middle" style="white-space: pre;" direction="ltr">uint32 data_offset;</text></g><g transform="translate(609.4999694824219 492.6667175292969) rotate(0 11 10)"><text x="0" y="14" font-family="Virgil, Segoe UI Emoji" font-size="16px" fill="#000000" text-anchor="start" style="white-space: pre;" direction="ltr">[1]</text></g><g stroke-linecap="round" transform="translate(520.6666564941406 513.3334045410156) rotate(0 113.8333740234375 30.333328247070312)"><path d="M0 0 C0 0, 0 0, 0 0 M0 0 C0 0, 0 0, 0 0 M0.22 6.72 C1.95 4.11, 3.36 2.69, 5.71 0.42 M0.02 6.12 C1.38 4.48, 2.68 2.97, 4.91 0.53 M0.13 12.8 C5.48 8.64, 9.34 1.75, 9.94 -0.4 M0.76 12.01 C3.08 9.59, 5.15 6.8, 9.92 0.61 M0.33 19.93 C5.13 13.55, 9.89 9.33, 13.85 -0.69 M-0.7 17.68 C6.41 12.75, 9.99 6.7, 15.92 1.01 M-0.81 23.71 C5.4 17.3, 7.56 15.53, 20.91 -1.77 M0.15 24.02 C6.93 17.2, 11.16 11.85, 20.58 -0.37 M0.23 30.35 C7.86 23.88, 15.23 15.49, 25.49 2.17 M-0.55 30.33 C7.09 24.26, 13.55 15.75, 27.01 0.17 M-1.7 38.2 C12.35 21.98, 21.82 8.58, 32.8 1.86 M-1.2 37.06 C7.02 29.07, 13.07 20.95, 31.42 -0.03 M-1.73 43.43 C11.07 30.39, 24.58 17.21, 38.26 2.1 M1.11 42.41 C13.13 27.68, 25.11 13.08, 37.3 0.49 M1.84 49.52 C15.81 30.9, 32.49 12.02, 41.44 -0.99 M0.19 49.05 C10.93 34.29, 23.42 20.75, 42.29 -0.27 M0.92 53.27 C15.95 36.39, 32.06 18.09, 45.6 1.27 M1.04 55.11 C11.26 42.8, 20.66 30.71, 46.59 0.6 M1.08 62.07 C12.85 46.06, 29.54 28.47, 51.68 -0.6 M0.2 60.66 C18.87 41.17, 36.13 19.91, 53.78 -0.72 M4.82 61.06 C22.92 39.17, 41.86 21.01, 57.8 -1.02 M5.84 59.99 C22.39 40.54, 39.99 19.67, 57.24 -0.4 M11.32 60.57 C29.15 39.12, 44.97 22.75, 65.27 -2.1 M10.44 60.15 C23.88 46.33, 37.9 30.36, 63.03 -0.58 M18.19 59.16 C35.96 36.77, 54.49 16.16, 70.05 -0.36 M15.39 61.13 C34.84 39.03, 52.43 18.9, 68.2 1.02 M19.73 59.01 C34.17 47.52, 46.1 33.05, 72.82 -1.52 M22.1 60.37 C31.67 47.88, 42.61 35.87, 73.74 -0.58 M28.91 59.09 C45.5 41.48, 63.47 22.22, 78.4 0.8 M26.9 61.06 C45.27 37.93, 64.38 16.71, 78.93 0.82 M32.88 60.44 C43.05 46.24, 54.11 35.81, 85.82 -1.75 M31.41 60.54 C51.16 38.11, 70.64 15.31, 84.19 -1.07 M38.96 59.43 C57.21 34.86, 77.24 13.72, 91.77 1.11 M37.39 60.7 C56.86 39.69, 75.36 16.98, 89.5 -0.6 M42.18 61.02 C59.91 41.72, 75.53 23.75, 96.64 -0.57 M43.17 60.31 C62.38 38.49, 83.89 14.65, 95.21 0.1 M47.22 59.94 C66.95 37.12, 88.4 16.54, 99.98 0.36 M48.46 61.42 C65.29 41.36, 83.7 21.59, 100.51 -0.4 M51.94 62.04 C72.59 38.28, 93 16.24, 106.52 1.37 M52.76 61.76 C69.91 41.43, 86.43 21.73, 106.2 -0.54 M56.75 62.21 C75.37 40.21, 96.03 20.62, 109.68 -0.51 M57.58 61.8 C77.13 40.07, 95.13 19.59, 111.15 0.69 M63.34 61.91 C82.77 39.77, 101.69 17.04, 116.91 1.31 M64.09 61.43 C78.38 41.34, 94.47 23.92, 116.46 0.79 M69.5 62.71 C79.47 46.28, 91.25 31.6, 120.45 0.52 M68.77 60.56 C82.63 44.21, 98.17 27.51, 121.16 0.4 M74.44 60.19 C92.42 38.57, 108.86 18.12, 128.12 -0.65 M73.66 60.27 C90.46 41.59, 106.56 24.42, 127.82 -0.02 M78.3 61.29 C91.13 46.22, 102.4 35.37, 132.7 -1.38 M78.66 61.15 C94.7 45, 107.56 27.12, 132.83 0.87 M84.15 61.52 C101.17 39.47, 121.58 21.32, 139.37 -1.04 M84.51 59.69 C101.97 41.79, 120.15 20.68, 136.71 -0.32 M89.5 62.2 C106.95 40.85, 126.66 16.86, 143.74 -1.92 M89.07 60.68 C107.81 42.91, 123.07 23.2, 143.03 0.69 M96.28 59.72 C109.91 46.39, 120.91 28.04, 147.38 0.01 M96.27 61.53 C105.77 47.04, 117.7 34.88, 148.77 0.19 M102.36 62.78 C119.76 41.93, 135.18 20.89, 155.75 0.32 M100.41 60.71 C111.1 47.1, 122.9 34.81, 153.19 -1.12 M107.52 61.68 C121.22 43.76, 139.05 24.7, 157.77 -0.54 M107.1 60.06 C121.85 43.77, 136.09 25.7, 158.21 0.25 M112.98 61.52 C128.12 40.24, 145.07 23.46, 163.78 -0.11 M111.62 61.23 C125.21 45.01, 138.25 28.15, 165.3 -1.08 M115.4 59.46 C132.65 43.48, 149.08 25.97, 169.04 -0.58 M117.75 60 C130.81 45.24, 145.63 28.25, 169.81 1.05 M122.36 62 C139.91 43.14, 155.14 21.91, 175.75 0.43 M122.22 60.69 C139.6 39.92, 158.28 17.03, 175.9 0.7 M126.37 62.21 C146.2 39.89, 162.04 21.45, 180.54 -0.87 M127.52 60.5 C144.76 40.24, 161.44 20.37, 180.89 0.21 M132.37 60.97 C154.25 35.36, 174.41 11.53, 184.47 -1.24 M132.31 59.94 C146.89 45.94, 158.96 31.65, 186.12 0.56 M139.72 60.23 C155.75 37.86, 173.26 15.98, 192.53 -1.07 M138.28 61.14 C154.97 40.12, 173.06 19.98, 191.35 -0.22 M141.73 60.28 C159.4 45.6, 170.79 28.57, 195.63 0.78 M142.53 60.29 C160.88 40.04, 179.66 19.71, 195.62 -0.73 M147.63 60.94 C169.13 38.65, 187 15.39, 202.11 0.3 M148.45 59.96 C165.31 41.92, 181.45 21.95, 201.65 0.26 M154.07 58.9 C171.09 41.16, 190.51 19.79, 207.76 1.53 M154.08 61.5 C167.87 43.62, 184.08 27.56, 206.66 0.06 M159.15 60.87 C168.84 47.14, 182.63 33.78, 211.28 1.85 M159.01 61.42 C171.65 48.11, 181.4 34.05, 212.81 0.58 M165.88 60.94 C175.36 45.73, 186.62 33.78, 216.3 1.18 M164.73 61.74 C182.57 38.91, 200.5 17.06, 218.03 0.57 M167.56 62.45 C181.06 47.96, 195.3 33.34, 222.89 -0.7 M168.87 61.17 C188.18 39.28, 209.51 15.06, 222.41 0.11 M174.53 59.62 C185.58 46.82, 198.2 35.04, 228.9 1.78 M174.83 61.64 C191.38 42.73, 205.21 24.86, 228.43 -0.35 M180.97 62.96 C198.61 42.83, 214.49 20.65, 227.45 7.55 M179.45 61.04 C189.61 48.78, 200.75 38.53, 227.35 6.7 M186.24 61.31 C197.67 45.85, 210 33.96, 229.54 12.3 M185.26 60.25 C196.75 48.34, 207.86 35.44, 228.61 12.39 M190.4 63.07 C202.12 50.09, 210.97 39.66, 229.57 16.57 M190.78 61.57 C205.39 44.69, 218.04 29.78, 228.33 18.6 M196.15 61.47 C201.99 53.83, 208.79 43.05, 226.12 24.98 M195.48 61.06 C206.84 50.99, 215.8 39.95, 226.91 24.42 M200.4 59.82 C206.38 55.79, 212.14 46.36, 227.32 32.19 M202.09 60.96 C210.34 51.45, 217.57 40.62, 227.23 31.2 M208.23 60.72 C212.1 53.87, 220.09 48.98, 229.58 36.46 M207.51 60.01 C212.09 54.76, 217.12 49.02, 228.37 37.16 M212.4 59.38 C215.95 55.32, 224.05 47.47, 228.39 41.12 M211.18 61.88 C216.11 56.52, 219.16 52.61, 227.18 42.11 M219.01 60.75 C220.69 56.78, 225.72 51.17, 227.78 48.56 M217.87 61.31 C219.94 57.81, 221.5 55.61, 228.5 48.47 M221.84 61 C223.68 59.8, 224.51 57.41, 227.65 54.36 M222.52 61.15 C223.83 59.36, 225.37 58.1, 227.87 55.23" stroke="#15aabf" stroke-width="0.5" fill="none"></path><path d="M-1.6 -1.22 C69.6 2, 141.66 2.26, 227.09 -0.3 M0.45 -0.48 C86.29 0.49, 173.22 0.2, 228.35 0.27 M225.85 -1.85 C229.09 21.08, 230.08 42.2, 228.55 60.67 M226.81 0.72 C228.31 15.66, 227.23 33.89, 228.22 60.71 M228.06 60.8 C173.62 59.59, 123.21 59.63, 0.66 60.68 M227.4 59.88 C141.63 59.52, 54.53 60.55, -0.45 60.63 M1.74 62.59 C-0.14 47.01, 0.73 33.74, -1.71 1.41 M-0.36 60.43 C-0.06 45.98, -1.21 31.17, 0.59 -0.68" stroke="#000000" stroke-width="1" fill="none"></path></g><g transform="translate(609.9999694824219 557.6669921875) rotate(0 15.5 10)"><text x="0" y="14" font-family="Virgil, Segoe UI Emoji" font-size="16px" fill="#000000" text-anchor="start" style="white-space: pre;" direction="ltr">[...]</text></g><g stroke-linecap="round" transform="translate(540.1665954589844 521.3334045410156) rotate(0 97.5 15)"><path d="M1.96 0.91 C41.13 0.69, 84.78 1.01, 193.76 -0.53 M-0.72 0.71 C69.88 -0.45, 139.95 -0.41, 195 0 M193.66 1.09 C195.42 7.79, 195.65 20.29, 193.91 31.24 M195.6 0 C195.58 7.79, 195.92 14.08, 195.86 29.64 M194.24 28.3 C120.27 28.88, 42.61 29.86, -1.83 31.52 M195.24 29.93 C140.28 31.77, 86.52 31.93, 0.96 29.1 M1.35 30.31 C1.63 22.21, 1.92 15.09, 1.3 0.08 M-0.39 30.08 C-0.01 24.4, 0.04 17.53, 0.36 0.77" stroke="#000000" stroke-width="1" fill="none"></path></g><g transform="translate(553.1665954589844 526.3334045410156) rotate(0 84.5 10)"><text x="84.5" y="14" font-family="Virgil, Segoe UI Emoji" font-size="16px" fill="#000000" text-anchor="middle" style="white-space: pre;" direction="ltr">uint32 data_offset;</text></g><g stroke-linecap="round" transform="translate(956.6665954589844 151.8333511352539) rotate(0 48.833343505859375 15.000007629394531)"><path d="M0 0 C0 0, 0 0, 0 0 M0 0 C0 0, 0 0, 0 0 M-0.73 6.57 C1.07 5.28, 2.51 3.49, 5.57 -0.43 M-0.64 6.24 C1.65 4.2, 2.86 2.32, 4.96 0.72 M-0.46 13.09 C2.58 7.48, 8.22 3.37, 10.78 -1.59 M-0.07 12.35 C2.4 9.22, 5.24 5.79, 10.87 -0.58 M1.6 17.23 C5.06 13.74, 8.24 5.33, 15.86 1.83 M-0.77 17.52 C3.99 13.95, 9.11 8.19, 14.97 0.18 M-0.42 24.75 C3.56 18.53, 11.6 11.92, 21.96 0.97 M0.6 24.66 C7.23 15.68, 15.1 7.4, 20.62 -0.92 M1.4 28.8 C7.16 21.02, 15.12 14.08, 25.94 -1.54 M-0.73 31.19 C6.43 22.83, 13.22 14.13, 25.59 0.43 M4.07 32.03 C12.27 24.34, 18.19 16.48, 31.04 -1.62 M6.16 30.63 C11.18 22.93, 16.67 17.01, 32.64 0.3 M9.26 30.25 C19.24 20.39, 29.78 8.67, 38.43 -0.86 M10.5 31.27 C20.25 17.7, 31.8 6.42, 35.94 0.81 M17.09 31.55 C23.48 18.41, 32.35 10.05, 41.22 -1.31 M16.44 30.37 C24.2 19.64, 33.41 11.61, 41.93 0.47 M20.36 31.59 C30.14 20.89, 37.51 11.29, 47.95 -0.17 M22.12 30.62 C32.35 18.86, 41.32 7.91, 47.73 0.57 M26.53 30.84 C34.95 20.69, 39.61 14.79, 52.57 -0.58 M26.64 30.44 C37.24 18.01, 47.09 6.87, 53.97 -0.45 M33.25 31.85 C43.01 18.93, 50.58 9.52, 57.98 1.65 M32.36 30.44 C39.41 22.71, 45.51 15.42, 57.22 -0.62 M38.36 28.49 C41.27 25.6, 49.11 18.95, 62 -0.75 M37.81 29.75 C42.83 24.35, 48.33 17.46, 62.81 -0.06 M43.36 31.2 C50.31 22.29, 57.53 12.64, 68.89 -1.19 M42.03 30.39 C49.46 23.13, 53.92 15.94, 69.25 -0.63 M47.45 28.23 C59.25 18.85, 65.68 8.34, 75.32 -2.04 M47.5 29.68 C56.82 19.86, 65.22 9.45, 75.07 0.48 M55 30.92 C57.76 23.44, 62.94 18.94, 77.92 -1.32 M52.48 30.56 C63.04 19.02, 72.45 6.2, 79.22 1.1 M57.55 30.91 C68.76 16.6, 78.96 7.64, 83.21 0.48 M57.88 30.03 C65.5 21.47, 71.97 13.54, 85.92 0.45 M65.33 29.44 C72.12 23.72, 77.86 13.86, 91.18 1.73 M63.65 29.48 C70.9 22.97, 76.62 17.36, 89.08 -0.45 M69.26 30.53 C75.97 22.12, 83.57 16.96, 97.23 0.84 M69.65 29.06 C77.32 22.44, 83.04 13.29, 95.11 -0.44 M72.42 30.29 C80.74 23.16, 88.55 16.28, 98.36 3.07 M74.03 30.1 C83.29 19.79, 92.43 9.88, 100.04 1.68 M80.09 30.16 C83.97 23.45, 92.98 17.74, 98.57 6.51 M80.08 29.44 C86.16 24.49, 90.99 17.82, 99.72 8.27 M83.2 30.15 C88.85 25.49, 91.93 19.4, 99.45 14.5 M84.66 29.83 C89.47 25.1, 95.56 18.37, 99.32 14.41 M91.22 30.74 C93.38 26.32, 97.47 23.11, 100.11 20.88 M90.25 30.9 C92.99 27.86, 95.69 24.13, 98.74 20.44 M96.21 30.36 C96.21 29.35, 97.31 28.39, 99.84 25.54 M95.52 30.27 C96.91 28.95, 97.68 27.79, 99.65 25.59" stroke="#868e96" stroke-width="0.5" fill="none"></path><path d="M0.14 0.18 C20.58 -0.9, 39.55 1.37, 97.22 0.67 M0.92 0.36 C36.87 0.12, 76.39 -0.78, 97.96 -0.36 M98.12 1.71 C96.66 8.49, 99.41 18.23, 96.98 30.82 M97.24 -0.09 C98.73 8.87, 98.11 16.78, 96.77 29.88 M97.39 30.61 C78.3 28.44, 55.64 28.48, 0.6 29.48 M98.19 29.24 C62.78 28.22, 29.15 29.61, 0.29 30 M0.75 29.59 C1.59 22.89, 1.06 18.36, -1.52 1.99 M-0.21 30.36 C-0.98 20.74, -0.03 10.75, 0.53 0.88" stroke="#000000" stroke-width="1" fill="none"></path></g><g mask="url(#mask-Y_Dw9hCEvutA3MjjHfyJK)" stroke-linecap="round"><g transform="translate(729.9999694824219 540.0000610351562) rotate(0 108.36802069720352 -193.44017890523946)"><path d="M-0.54 -0.42 C74.38 -131.13, 149.06 -263.34, 217.27 -386.81 M-0.11 -0.07 C64.3 -111.41, 126.4 -222.97, 216.82 -385.78" stroke="#000000" stroke-width="1" fill="none"></path></g><g transform="translate(729.9999694824219 540.0000610351562) rotate(0 108.36802069720352 -193.44017890523946)"><path d="M211.01 -357.01 C213.59 -364.41, 216.48 -375.75, 217.08 -387.57 M211.86 -356.29 C214 -363.73, 214.39 -372.93, 216.18 -385.48" stroke="#000000" stroke-width="1" fill="none"></path></g><g transform="translate(729.9999694824219 540.0000610351562) rotate(0 108.36802069720352 -193.44017890523946)"><path d="M193.07 -366.98 C201.75 -371.06, 210.75 -379, 217.08 -387.57 M193.93 -366.26 C201.15 -370.94, 206.71 -377.27, 216.18 -385.48" stroke="#000000" stroke-width="1" fill="none"></path></g></g><mask id="mask-Y_Dw9hCEvutA3MjjHfyJK"><rect x="0" y="0" fill="#fff" width="1047.142933332968" height="1025.9262367325396"></rect><rect x="812.0714514076949" y="337.0369731864646" fill="#000" width="53" height="20" opacity="1"></rect></mask><g transform="translate(812.0714514076949 337.0369731864646) rotate(0 26.2965387719305 9.522908943452194)"><text x="26.5" y="14" font-family="Virgil, Segoe UI Emoji" font-size="16px" fill="#000000" text-anchor="middle" style="white-space: pre;" direction="ltr">offset</text></g><g transform="translate(200.33331298828125 428.6667175292969) rotate(0 82 10)"><text x="0" y="14" font-family="Virgil, Segoe UI Emoji" font-size="16px" fill="#000000" text-anchor="start" style="white-space: pre;" direction="ltr">WASMGlobalInstance</text></g><g stroke-linecap="round" transform="translate(190 455.33331298828125) rotate(0 90.16665649414062 23.333389282226562)"><path d="M2 -1.41 C60.79 1.26, 121.36 2.12, 179.34 0.68 M180.3 1.12 C178.89 15.02, 179.51 32.53, 179.39 48.06 M181.31 46.25 C141.11 43.46, 101.78 46.22, 0.78 45.19 M-0.99 46.04 C-1.15 29.65, -1.59 12.07, -1.7 -1.58" stroke="#000000" stroke-width="1.5" fill="none" stroke-dasharray="8 9"></path></g><g mask="url(#mask-1QAmzR8Zkk8scUA3tqI0k)" stroke-linecap="round"><g transform="translate(557.3333129882812 376.0000305175781) rotate(0 -90.69601062624105 38.22839422523566)"><path d="M-1.39 1.06 C-61.32 24.14, -119.9 51.02, -180.82 74.6 M-0.57 0.65 C-60.45 25.03, -121.91 51.15, -179.35 75.8" stroke="#000000" stroke-width="1" fill="none"></path></g><g transform="translate(557.3333129882812 376.0000305175781) rotate(0 -90.69601062624105 38.22839422523566)"><path d="M-158.86 56.35 C-165.41 61.74, -170.33 70, -180.96 75.27 M-158.03 55.94 C-164.13 61.98, -171.78 69.42, -179.49 76.48" stroke="#000000" stroke-width="1" fill="none"></path></g><g transform="translate(557.3333129882812 376.0000305175781) rotate(0 -90.69601062624105 38.22839422523566)"><path d="M-150.79 75.22 C-160.19 74.13, -167.87 75.95, -180.96 75.27 M-149.97 74.81 C-158.82 74.38, -169.23 75.36, -179.49 76.48" stroke="#000000" stroke-width="1" fill="none"></path></g></g><mask id="mask-1QAmzR8Zkk8scUA3tqI0k"><rect x="0" y="0" fill="#fff" width="836.5506564180245" height="551.1247240081348"></rect><rect x="422.7246412734096" y="403.56237726285644" fill="#000" width="90" height="20" opacity="1"></rect></mask><g transform="translate(422.72464127340965 403.56237726285644) rotate(0 43.91266108863056 10.666047479957342)"><text x="45" y="14" font-family="Virgil, Segoe UI Emoji" font-size="16px" fill="#000000" text-anchor="middle" style="white-space: pre;" direction="ltr">when import</text></g><g stroke-linecap="round" transform="translate(172.99993896484375 373.6666564941406) rotate(0 118.16671752929688 98.16668701171875)"><path d="M-0.45 0.1 C73.77 -1.22, 148.86 1.01, 235.5 0.09 M235.44 0.97 C234.46 75.19, 236.96 149.92, 235.62 194.61 M236.52 197.1 C142.22 195.91, 51.5 195.36, -1.12 195.88 M0.15 197.65 C1.03 139.69, -1.37 87.58, 1.84 0.61" stroke="#000000" stroke-width="1.5" fill="none" stroke-dasharray="8 9"></path></g><g transform="translate(165.333251953125 350.00006103515625) rotate(0 119.5 10)"><text x="0" y="14" font-family="Virgil, Segoe UI Emoji" font-size="16px" fill="#000000" text-anchor="start" style="white-space: pre;" direction="ltr">WASMModuleInstance (second)</text></g><g transform="translate(11.666717529296903 22.33343505859375) rotate(0 85.5 9.5)"><text x="0" y="15" font-family="Cascadia, Segoe UI Emoji" font-size="16px" fill="#d9480f" text-anchor="start" style="white-space: pre;" direction="ltr">WASMModuleInstance</text></g><g stroke-linecap="round" transform="translate(10 42.666778564453125) rotate(0 101.00001525878908 62.33332824707031)"><path d="M0.05 -0.01 C79.52 2.89, 159.35 0.92, 203.36 0.85 M-0.12 0.28 C67.54 1.41, 135.68 1.33, 202.11 -0.08 M202.32 -1.77 C201.15 30.92, 201.82 57.96, 200.55 124.31 M201.6 0.86 C202.34 44.55, 201.85 89.09, 202.31 124.54 M201.95 124.26 C155.11 121.61, 106.88 122.96, 0.81 125.38 M201.67 124.33 C128.32 124.69, 53.21 123.82, 0.72 125.44 M0.25 124.34 C-0.66 91.45, 0.58 58.63, 1.26 -0.11 M0.49 124.96 C0.21 92.93, -0.68 59.93, 0.63 -0.52" stroke="#000000" stroke-width="1" fill="none"></path></g><g transform="translate(219.66662597656253 173.00010681152344) rotate(0 108.99999999999999 9.5)"><text x="0" y="15" font-family="Cascadia, Segoe UI Emoji" font-size="16px" fill="#000000" text-anchor="start" style="white-space: pre;" direction="ltr">WASMModuleInstanceExtra</text></g><g stroke-linecap="round" transform="translate(198.6666259765625 201.66677856445312) rotate(0 128.16668701171875 45.666656494140625)"><path d="M1.43 0.51 C62.2 -0.81, 126.01 -0.38, 256.94 -0.28 M-0.42 0.28 C67.2 -0.6, 133.06 -0.54, 256.43 -0.14 M256.41 1.79 C256.78 22.02, 256.29 41.01, 257.42 90.01 M255.83 -0.59 C254.75 30.05, 255.48 58.76, 257.27 91.19 M257.6 92.16 C173.62 92.85, 92.89 91.98, -0.82 90.33 M255.85 91.56 C204.51 94.01, 152.16 93.75, -0.2 91.29 M-0.72 90.75 C0.88 58.64, -1.12 24.92, 1.98 1.36 M0.52 91.69 C-1.04 68.23, -1.07 45.43, -0.53 -0.54" stroke="#000000" stroke-width="1" fill="none"></path></g><g stroke-linecap="round" transform="translate(206.33343505859378 220.66677856445312) rotate(0 121.50003051757811 15.5)"><path d="M1.07 -0.31 C70.02 3.51, 138.62 2.15, 242.4 1.29 M0 -0.6 C97.56 1.58, 193.5 0.99, 243.07 -0.62 M241.85 -1.2 C241.98 9.45, 243.77 20.97, 244.39 30.75 M243.87 0.89 C242.91 7.29, 242.42 16.22, 242.26 31.68 M244.52 32.07 C154.34 31.52, 62.83 31.49, 1.26 29.56 M242.93 30.71 C156.69 30.27, 72.05 29.27, 0.56 30.9 M0.58 31.05 C-1.02 20.75, 1.01 11.77, -0.13 -0.73 M-0.49 31.23 C0.29 20.43, 0.11 10.22, -0.05 -0.29" stroke="#000000" stroke-width="1" fill="none"></path></g><g stroke-linecap="round"><g transform="translate(437.31002648858714 227.33351135253912) rotate(0 40.892993485752356 -50.4587129476586)"><path d="M1 0.17 C18.42 -20.46, 34.57 -45.01, 81.11 -99.74 M0.67 -0.1 C29.61 -36, 58.28 -71.39, 79.82 -101.09" stroke="#000000" stroke-width="1" fill="none"></path></g><g transform="translate(437.31002648858714 227.33351135253912) rotate(0 40.892993485752356 -50.4587129476586)"><path d="M72.08 -72.22 C73.81 -77.11, 73.79 -85.57, 80.34 -100.6 M71.76 -72.48 C74.78 -83.12, 78.12 -93.29, 79.04 -101.94" stroke="#000000" stroke-width="1" fill="none"></path></g><g transform="translate(437.31002648858714 227.33351135253912) rotate(0 40.892993485752356 -50.4587129476586)"><path d="M55.68 -84.54 C61.18 -86.59, 64.84 -92.27, 80.34 -100.6 M55.35 -84.8 C64.06 -91.11, 73.18 -96.94, 79.04 -101.94" stroke="#000000" stroke-width="1" fill="none"></path></g></g><mask></mask><g stroke-linecap="round" transform="translate(206.00000000000003 260.33343505859375) rotate(0 122.16665649414061 15)"><path d="M-0.89 1.45 C94.1 0.94, 188.06 0.31, 244.3 0.04 M0.33 -0.62 C78.61 -1.13, 155.14 -1.93, 244.57 0.52 M242.81 -0.3 C244.66 5.77, 246.14 15.88, 243.48 30.25 M245.2 -0.49 C243.99 9.03, 244.25 15.66, 244.84 29.96 M243.03 30.24 C174.41 30.56, 103.07 30.08, -0.13 28.5 M243.85 29.42 C158.44 29.01, 72.66 29.56, 0.28 29.32 M-1.15 31.42 C1.69 23.14, 0.89 17.03, -0.62 1.42 M0.15 30.28 C-0.6 19.93, -0.07 10.39, 0.11 -0.67" stroke="#000000" stroke-width="1" fill="none"></path></g><g transform="translate(245.66665649414062 265.33343505859375) rotate(0 82.5 10)"><text x="82.5" y="14" font-family="Virgil, Segoe UI Emoji" font-size="16px" fill="#000000" text-anchor="middle" style="white-space: pre;" direction="ltr">uint32 global_count;</text></g><g stroke-linecap="round" transform="translate(67.66668701171878 118.00018310546875) rotate(0 57.5 15.166679382324219)"><path d="M0.1 -0.15 C42.45 0.05, 89.54 -1.19, 113.83 -1.4 M-0.27 0.34 C32.95 -0.85, 67.31 -0.76, 114.42 0.71 M115.06 -0.62 C116.37 11.95, 115.14 24.49, 115.3 30.89 M114.58 0.11 C114.18 6.85, 115.33 14.51, 115.7 30.01 M113.03 29.73 C72.76 29.28, 27.48 29.85, 1.45 29.6 M114.88 30.61 C70.28 30.66, 25.08 30.84, -0.99 30.28 M-0.01 28.91 C-0.74 20.87, 1.08 15.08, -0.12 0.92 M-0.23 29.42 C-0.55 23.3, -0.36 17.12, -0.14 0.84" stroke="#000000" stroke-width="1" fill="none"></path></g><g transform="translate(119.66668701171878 123.16686248779297) rotate(0 5.5 10)"><text x="5.5" y="14" font-family="Virgil, Segoe UI Emoji" font-size="16px" fill="#000000" text-anchor="middle" style="white-space: pre;" direction="ltr">e</text></g><g stroke-linecap="round" transform="translate(148.00000000000003 125.6668701171875) rotate(0 6.833343505859375 6.166664123535156)"><path d="M0.19 6.79 C0.19 6.79, 0.19 6.79, 0.19 6.79 M0.19 6.79 C0.19 6.79, 0.19 6.79, 0.19 6.79 M3.44 9.88 C5.46 6.5, 6.18 5.94, 9.98 2.48 M2.86 9.42 C4.89 6.55, 6.97 4.55, 9.69 1.39 M6.58 12.83 C8.01 11.17, 8.11 9.27, 12.4 5.98 M6.2 11.99 C8.68 9.72, 10.55 6.74, 12.25 5.37" stroke="#be4bdb" stroke-width="0.5" fill="none"></path><path d="M6.35 -0.5 C9.4 1.86, 11.59 3.82, 14.41 6.68 M7.26 -0.16 C8.49 1.86, 10.83 3.57, 14.11 6.83 M13.95 7.16 C11.75 9, 8.66 10.3, 6.81 11.92 M13.48 6.78 C11.79 8.95, 9.5 10.46, 6.6 12.27 M6.48 11.67 C4.8 10.29, 3.17 10.18, -0.39 7.23 M6.9 12.43 C5.7 11.1, 3.88 10.27, 0.09 7 M-0.57 7.94 C2.33 4.94, 5.12 2.16, 7.83 -0.24 M-0.08 7.42 C2.06 5, 3.59 3.3, 6.98 -0.17" stroke="#000000" stroke-width="1" fill="none"></path></g><g stroke-linecap="round"><g transform="translate(155.33337402343753 130.33343505859375) rotate(0 23.01894331293626 34.688096238300204)"><path d="M0.24 -0.23 C13.08 19.18, 24.78 37.25, 45.87 67.69 M0.1 -0.01 C12.45 20.33, 25.95 41.78, 45.93 69.61" stroke="#000000" stroke-width="1" fill="none"></path></g><g transform="translate(155.33337402343753 130.33343505859375) rotate(0 23.01894331293626 34.688096238300204)"><path d="M21.62 52.13 C28.56 57.66, 34.85 61.93, 46.68 67.63 M21.49 52.36 C27.88 57.13, 35.32 63.12, 46.74 69.55" stroke="#000000" stroke-width="1" fill="none"></path></g><g transform="translate(155.33337402343753 130.33343505859375) rotate(0 23.01894331293626 34.688096238300204)"><path d="M38.45 40.39 C41.06 48.95, 42.92 56.31, 46.68 67.63 M38.32 40.61 C39.72 48.77, 42.19 58.22, 46.74 69.55" stroke="#000000" stroke-width="1" fill="none"></path></g></g><mask></mask><g stroke-linecap="round"><g transform="translate(551.3333740234375 331.3333435058594) rotate(0 -71.78919714330704 19.427308002237908)"><path d="M0.44 1.24 C-31.67 8.53, -64.18 17, -144.01 37.51 M-0.14 -0.94 C-30.89 8.04, -60.67 16.48, -143.19 39.8" stroke="#000000" stroke-width="1" fill="none"></path></g><g transform="translate(551.3333740234375 331.3333435058594) rotate(0 -71.78919714330704 19.427308002237908)"><path d="M-118.41 23.49 C-123.95 25.13, -130.02 28.78, -143.13 37.99 M-118.99 21.31 C-124.76 25.94, -129.76 29.88, -142.3 40.28" stroke="#000000" stroke-width="1" fill="none"></path></g><g transform="translate(551.3333740234375 331.3333435058594) rotate(0 -71.78919714330704 19.427308002237908)"><path d="M-112.83 43.23 C-119.49 40.55, -126.79 39.85, -143.13 37.99 M-113.41 41.06 C-120.15 41.6, -126.3 41.44, -142.3 40.28" stroke="#000000" stroke-width="1" fill="none"></path></g></g><mask></mask><g stroke-linecap="round" transform="translate(549.1666564941406 327.1666793823242) rotate(0 6.833343505859375 6.166664123535156)"><path d="M0.19 6.79 C0.19 6.79, 0.19 6.79, 0.19 6.79 M0.19 6.79 C0.19 6.79, 0.19 6.79, 0.19 6.79 M2.72 8.49 C5.8 7.55, 6.93 5.19, 9.19 1.67 M3.62 9.75 C4.95 7.98, 6.15 5.71, 9.39 1.54 M6.69 11.54 C8.55 10.59, 9.79 8.29, 12 4.84 M6.23 12.05 C7.43 10.13, 9.87 7.96, 12.54 5.66" stroke="#be4bdb" stroke-width="0.5" fill="none"></path><path d="M6.55 0.78 C9.36 2.85, 11.04 4.05, 14.23 6.7 M7.3 -0.25 C8.88 2.03, 10.84 4.85, 13.93 7.46 M13.73 7.68 C12.04 9.53, 8.5 10.95, 7.68 13.11 M13.36 7.12 C11.66 9.05, 9.55 10.59, 6.72 12.27 M7.51 12.35 C4.03 9.64, 2.35 8.95, -0.21 6.52 M7.4 11.92 C4.46 10.45, 2.55 8.72, 0.16 6.6 M0.8 6.98 C3.17 4.62, 5.63 1.08, 6.77 -0.2 M-0.26 7.16 C1.92 4.84, 3.13 3.8, 6.62 0.47" stroke="#000000" stroke-width="1" fill="none"></path></g><g stroke-linecap="round" transform="translate(547.1666564941406 371.1666793823242) rotate(0 6.833343505859375 6.166664123535156)"><path d="M0.19 6.79 C0.19 6.79, 0.19 6.79, 0.19 6.79 M0.19 6.79 C0.19 6.79, 0.19 6.79, 0.19 6.79 M2.29 10.01 C5.03 7.56, 6.35 5.49, 9.57 1.46 M3.54 9.48 C6 6.33, 7.95 3.79, 9.44 1.77 M5.73 12.67 C8.2 10.49, 9.32 8.42, 11.72 5.05 M6.24 11.66 C8.55 9.75, 10.63 7.03, 12.55 5.63" stroke="#be4bdb" stroke-width="0.5" fill="none"></path><path d="M7.78 0.29 C9.82 2.26, 11.06 5.19, 13.36 7.14 M6.75 -0.27 C9.23 2.2, 12.37 5.52, 14.12 7.18 M14.34 7.59 C12.03 8.2, 9.29 11.47, 7.77 12.44 M13.79 7.04 C11.7 8.86, 9.21 10.45, 6.94 12.61 M7.02 11.89 C4.39 11.38, 3.77 9.32, -0.48 7.42 M6.59 12.23 C4.87 11.19, 2.85 9.28, -0.4 7.24 M-0.02 7.67 C2.04 5.66, 2.91 2.84, 6.8 -0.37 M0.16 7.14 C2.42 3.8, 5.97 1.18, 7.47 -0.15" stroke="#000000" stroke-width="1" fill="none"></path></g><g stroke-linecap="round" transform="translate(23.666778564453153 64.00006103515625) rotate(0 90 15.5)"><path d="M-0.66 1.22 C43.68 -0.24, 90.86 -0.14, 179.25 0.93 M-0.41 0.49 C46.13 0.48, 92.89 0.72, 180.45 0.15 M181.18 0.22 C179.51 5.59, 180.64 11.92, 178.93 30.77 M179.76 0.07 C180.35 9.41, 180.53 18.88, 180.44 31.06 M180.11 30.53 C126.6 29.17, 72.73 29.43, 1.01 31.92 M179.02 31.11 C135.98 32.92, 93.29 32.11, 0.85 31.9 M1.8 31.5 C-1.23 24.12, 1.89 12.68, -1.44 1.48 M0.71 31.46 C-0.16 19.63, -0.14 7.48, -0.48 -0.51" stroke="#000000" stroke-width="1" fill="none"></path></g><g transform="translate(31.666778564453153 69.50006103515625) rotate(0 82 10)"><text x="82" y="14" font-family="Virgil, Segoe UI Emoji" font-size="16px" fill="#000000" text-anchor="middle" style="white-space: pre;" direction="ltr">uint8 * global_data</text></g><g stroke-linecap="round"><g transform="translate(201.3333740234375 73.66664123535156) rotate(0 376.88916503278216 -8.94848059563438)"><path d="M0.7 -1.18 C64.98 -4.48, 260.65 -18.36, 386.22 -18.71 C511.8 -19.06, 692.56 -6.07, 754.16 -3.29 M-0.38 0.82 C63.78 -1.84, 260.29 -17.14, 385.87 -17.63 C511.45 -18.12, 691.9 -4.38, 753.09 -2.13" stroke="#000000" stroke-width="1" fill="none"></path></g><g transform="translate(201.3333740234375 73.66664123535156) rotate(0 376.88916503278216 -8.94848059563438)"><path d="M722.43 8.5 C732.85 2.41, 743.81 2.19, 754.65 -2.78 M723.53 6.63 C732.57 3.65, 739.75 0.79, 752.51 -1.39" stroke="#000000" stroke-width="1" fill="none"></path></g><g transform="translate(201.3333740234375 73.66664123535156) rotate(0 376.88916503278216 -8.94848059563438)"><path d="M723.53 -11.99 C733.75 -10.94, 744.33 -4.02, 754.65 -2.78 M724.63 -13.86 C733.21 -11.17, 740.09 -8.35, 752.51 -1.39" stroke="#000000" stroke-width="1" fill="none"></path></g></g><mask></mask><g stroke-linecap="round" transform="translate(193.50006103515628 68.16667938232422) rotate(0 6.833343505859375 6.166664123535156)"><path d="M0.19 6.79 C0.19 6.79, 0.19 6.79, 0.19 6.79 M0.19 6.79 C0.19 6.79, 0.19 6.79, 0.19 6.79 M3.98 9.18 C4.88 7.31, 7.9 3.95, 9.81 2.34 M3.45 9.11 C5.37 7.66, 6.66 5.53, 9.7 1.6 M5.9 11.26 C6.99 10.12, 9.21 8.41, 12.48 4.51 M6.35 12.22 C8.14 10.49, 9.36 8.66, 12.25 5.07" stroke="#be4bdb" stroke-width="0.5" fill="none"></path><path d="M6.56 0.15 C10.46 2.75, 12.79 5.49, 14.25 6.1 M6.78 0.09 C8.76 1.6, 9.54 3.06, 14.08 7.47 M14.01 7.64 C11.46 9.2, 8.48 10.6, 6.22 13.16 M13.5 6.69 C11.86 8.03, 10.85 9.09, 6.74 12.37 M7.7 11.89 C3.89 9.97, 1.26 8.04, -0.59 6.2 M7.18 12.52 C5.17 10.51, 2.83 9.47, -0.18 6.59 M0.71 7.11 C2.1 5.12, 5.04 0.76, 7.82 -0.89 M0.34 6.53 C2.79 5, 5.06 1.68, 6.77 -0.25" stroke="#000000" stroke-width="1" fill="none"></path></g><g transform="translate(228.49993896484375 524.3332214355469) rotate(0 49.5 10)"><text x="0" y="14" font-family="Virgil, Segoe UI Emoji" font-size="16px" fill="#000000" text-anchor="start" style="white-space: pre;" direction="ltr">global_data</text></g><g stroke-linecap="round" transform="translate(189.1666259765625 512.3331451416016) rotate(0 90.16665649414062 23.333389282226562)"><path d="M-0.06 -1.81 C69.05 1.17, 133.03 -1.43, 181.43 -0.61 M181.36 1.69 C179.85 18.36, 179.04 35.55, 181.59 47.65 M181.74 46.18 C110.81 44.67, 41.79 43.81, 1.97 48.08 M-1.91 47 C0.87 30.33, 1.49 17.36, 1.81 -1.72" stroke="#000000" stroke-width="1.5" fill="none" stroke-dasharray="8 9"></path></g><g transform="translate(249.99993896484375 466.9999084472656) rotate(0 27.5 10)"><text x="0" y="14" font-family="Virgil, Segoe UI Emoji" font-size="16px" fill="#000000" text-anchor="start" style="white-space: pre;" direction="ltr">globals</text></g><g stroke-linecap="round"><g transform="translate(220.6666259765625 479.9999084472656) rotate(0 -35.06402359574449 29.23212979414967)"><path d="M-0.5 0.55 C-12.15 3.21, -65.26 5.95, -70.59 15.64 C-75.92 25.33, -38.92 51.41, -32.48 58.67 M1.44 -0.21 C-10.21 2.69, -65.24 7.71, -70.98 17.16 C-76.71 26.62, -39 49.85, -32.97 56.5" stroke="#000000" stroke-width="1" fill="none"></path></g><g transform="translate(220.6666259765625 479.9999084472656) rotate(0 -35.06402359574449 29.23212979414967)"><path d="M-59.29 48.97 C-53.7 50.42, -46.51 53.61, -31.55 55.9 M-60 47.99 C-49.32 51.71, -39.06 54.94, -33.47 56.08" stroke="#000000" stroke-width="1" fill="none"></path></g><g transform="translate(220.6666259765625 479.9999084472656) rotate(0 -35.06402359574449 29.23212979414967)"><path d="M-46.92 33.64 C-44.36 38.74, -40.16 45.63, -31.55 55.9 M-47.63 32.66 C-41.69 42.18, -36.17 51.29, -33.47 56.08" stroke="#000000" stroke-width="1" fill="none"></path></g></g><mask></mask><g stroke-linecap="round" transform="translate(432.91673278808594 219.6668472290039) rotate(0 6.833343505859375 6.166664123535156)"><path d="M0.19 6.79 C0.19 6.79, 0.19 6.79, 0.19 6.79 M0.19 6.79 C0.19 6.79, 0.19 6.79, 0.19 6.79 M4.05 10.29 C6.17 7.33, 6.84 3.75, 9.08 2.09 M3.7 9.35 C4.68 7.39, 5.78 6.43, 9.88 2.27 M6.3 11.14 C8.42 10.69, 10.2 7.43, 12.99 4.98 M6.49 12.18 C8.37 10.13, 10.22 7.36, 12.04 5.36" stroke="#be4bdb" stroke-width="0.5" fill="none"></path><path d="M7.78 -0.36 C8.84 1.35, 9.97 2.98, 13.71 6.83 M6.85 0.47 C9.26 2.31, 10.44 4.32, 13.82 6.56 M14.34 7.45 C11.77 8.53, 10.07 9.92, 7.51 11.8 M13.69 7.39 C11.99 8.56, 9.76 9.69, 7.36 12.73 M7.79 11.79 C5.42 11.4, 2.84 9.11, -0.25 6.73 M7.26 12.07 C4.38 10.64, 1.74 8.28, -0.39 7.39 M-0.57 7.26 C2.63 5.32, 4.57 1.74, 7.42 0.43 M0.44 6.51 C1.59 5.03, 3.59 3.8, 7.41 0.4" stroke="#000000" stroke-width="1" fill="none"></path></g></svg>