<?xml version="1.0" encoding="UTF-8" standalone="no"?><svg xmlns="http://www.w3.org/2000/svg" xmlns:xlink="http://www.w3.org/1999/xlink" contentStyleType="text/css" height="369px" preserveAspectRatio="none" style="width:1738px;height:369px;background:#FFFFFF;" version="1.1" viewBox="0 0 1738 369" width="1738px" zoomAndPan="magnify"><defs/><g><line style="stroke:#181818;stroke-width:0.5;stroke-dasharray:5.0,5.0;" x1="65" x2="65" y1="84.0679" y2="285.892"/><line style="stroke:#181818;stroke-width:0.5;stroke-dasharray:5.0,5.0;" x1="528.5" x2="528.5" y1="84.0679" y2="285.892"/><line style="stroke:#181818;stroke-width:0.5;stroke-dasharray:5.0,5.0;" x1="1038.5" x2="1038.5" y1="84.0679" y2="285.892"/><line style="stroke:#181818;stroke-width:0.5;stroke-dasharray:5.0,5.0;" x1="1412" x2="1412" y1="84.0679" y2="285.892"/><line style="stroke:#181818;stroke-width:0.5;stroke-dasharray:5.0,5.0;" x1="1679.5" x2="1679.5" y1="84.0679" y2="285.892"/><text fill="#000000" font-family="sans-serif" font-size="14" lengthAdjust="spacing" textLength="110" x="5" y="79.9659">User application</text><ellipse cx="65" cy="13.5" fill="#E2E2F0" rx="8" ry="8" style="stroke:#181818;stroke-width:0.5;"/><path d="M65,21.5 L65,48.5 M52,29.5 L78,29.5 M65,48.5 L52,63.5 M65,48.5 L78,63.5 " fill="none" style="stroke:#181818;stroke-width:0.5;"/><text fill="#000000" font-family="sans-serif" font-size="14" lengthAdjust="spacing" textLength="110" x="5" y="299.8579">User application</text><ellipse cx="65" cy="312.4599" fill="#E2E2F0" rx="8" ry="8" style="stroke:#181818;stroke-width:0.5;"/><path d="M65,320.4599 L65,347.4599 M52,328.4599 L78,328.4599 M65,347.4599 L52,362.4599 M65,347.4599 L78,362.4599 " fill="none" style="stroke:#181818;stroke-width:0.5;"/><rect fill="#E2E2F0" height="33.0679" rx="2.5" ry="2.5" style="stroke:#181818;stroke-width:0.5;" width="89" x="484.5" y="50"/><text fill="#000000" font-family="sans-serif" font-size="14" lengthAdjust="spacing" textLength="75" x="491.5" y="71.9659">application</text><rect fill="#E2E2F0" height="33.0679" rx="2.5" ry="2.5" style="stroke:#181818;stroke-width:0.5;" width="89" x="484.5" y="284.892"/><text fill="#000000" font-family="sans-serif" font-size="14" lengthAdjust="spacing" textLength="75" x="491.5" y="306.8579">application</text><rect fill="#E2E2F0" height="33.0679" rx="2.5" ry="2.5" style="stroke:#181818;stroke-width:0.5;" width="131" x="973.5" y="50"/><text fill="#000000" font-family="sans-serif" font-size="14" lengthAdjust="spacing" textLength="117" x="980.5" y="71.9659">routing_manager</text><rect fill="#E2E2F0" height="33.0679" rx="2.5" ry="2.5" style="stroke:#181818;stroke-width:0.5;" width="131" x="973.5" y="284.892"/><text fill="#000000" font-family="sans-serif" font-size="14" lengthAdjust="spacing" textLength="117" x="980.5" y="306.8579">routing_manager</text><rect fill="#E2E2F0" height="33.0679" rx="2.5" ry="2.5" style="stroke:#181818;stroke-width:0.5;" width="142" x="1341" y="50"/><text fill="#000000" font-family="sans-serif" font-size="14" lengthAdjust="spacing" textLength="128" x="1348" y="71.9659">endpoint_manager</text><rect fill="#E2E2F0" height="33.0679" rx="2.5" ry="2.5" style="stroke:#181818;stroke-width:0.5;" width="142" x="1341" y="284.892"/><text fill="#000000" font-family="sans-serif" font-size="14" lengthAdjust="spacing" textLength="128" x="1348" y="306.8579">endpoint_manager</text><rect fill="#E2E2F0" height="33.0679" rx="2.5" ry="2.5" style="stroke:#181818;stroke-width:0.5;" width="105" x="1627.5" y="50"/><text fill="#000000" font-family="sans-serif" font-size="14" lengthAdjust="spacing" textLength="91" x="1634.5" y="71.9659">configuration</text><rect fill="#E2E2F0" height="33.0679" rx="2.5" ry="2.5" style="stroke:#181818;stroke-width:0.5;" width="105" x="1627.5" y="284.892"/><text fill="#000000" font-family="sans-serif" font-size="14" lengthAdjust="spacing" textLength="91" x="1634.5" y="306.8579">configuration</text><polygon fill="#181818" points="517,113.7739,527,117.7739,517,121.7739,521,117.7739" style="stroke:#181818;stroke-width:1.0;"/><line style="stroke:#181818;stroke-width:1.0;" x1="65" x2="523" y1="117.7739" y2="117.7739"/><text fill="#000000" font-family="sans-serif" font-size="13" lengthAdjust="spacing" textLength="440" x="72" y="111.9649">offer_service(service_t, instance_t, major_version_t, minor_version_t): bool</text><polygon fill="#181818" points="1027,145.4799,1037,149.4799,1027,153.4799,1031,149.4799" style="stroke:#181818;stroke-width:1.0;"/><line style="stroke:#181818;stroke-width:1.0;" x1="529" x2="1033" y1="149.4799" y2="149.4799"/><text fill="#000000" font-family="sans-serif" font-size="13" lengthAdjust="spacing" textLength="486" x="536" y="143.6709">offer_service(client_t, service_t, instance_t, major_version_t, minor_version_t):bool</text><polygon fill="#181818" points="1400,177.186,1410,181.186,1400,185.186,1404,181.186" style="stroke:#181818;stroke-width:1.0;"/><line style="stroke:#181818;stroke-width:1.0;" x1="1039" x2="1406" y1="181.186" y2="181.186"/><text fill="#000000" font-family="sans-serif" font-size="13" lengthAdjust="spacing" textLength="349" x="1046" y="175.377">find_or_create_server_endpoint(service_t, instance_t): bool</text><line style="stroke:#181818;stroke-width:1.0;" x1="1412" x2="1454" y1="212.892" y2="212.892"/><line style="stroke:#181818;stroke-width:1.0;" x1="1454" x2="1454" y1="212.892" y2="225.892"/><line style="stroke:#181818;stroke-width:1.0;" x1="1413" x2="1454" y1="225.892" y2="225.892"/><polygon fill="#181818" points="1423,221.892,1413,225.892,1423,229.892,1419,225.892" style="stroke:#181818;stroke-width:1.0;"/><text fill="#000000" font-family="sans-serif" font-size="13" lengthAdjust="spacing" textLength="254" x="1419" y="207.083">find_server_endpoint(service_t, instance_t)</text><polygon fill="#181818" points="1050,235.892,1040,239.892,1050,243.892,1046,239.892" style="stroke:#181818;stroke-width:1.0;"/><line style="stroke:#181818;stroke-width:1.0;stroke-dasharray:2.0,2.0;" x1="1044" x2="1411" y1="239.892" y2="239.892"/><polygon fill="#181818" points="540,249.892,530,253.892,540,257.892,536,253.892" style="stroke:#181818;stroke-width:1.0;"/><line style="stroke:#181818;stroke-width:1.0;stroke-dasharray:2.0,2.0;" x1="534" x2="1038" y1="253.892" y2="253.892"/><polygon fill="#181818" points="76,263.892,66,267.892,76,271.892,72,267.892" style="stroke:#181818;stroke-width:1.0;"/><line style="stroke:#181818;stroke-width:1.0;stroke-dasharray:2.0,2.0;" x1="70" x2="528" y1="267.892" y2="267.892"/><!--SRC=[dP5B3e9038Rtd6BYIXEz00jluNfIXu7KG3ifXVDRG19UCSRLJFhulxyj16LnfqSRnK5ADGPGP78d1wqReba2KGoOW7HPiOeBTufK-GO8garFf28naXuc0rE9LIUJP3RQkDrNJdB7PHd5Mwh74C-Vr-lL8RKADFqRUB7uFafhJMC0QHcuvEx9N6TBQIDjdEzeeSPetatlR-w8tN8ClLsCiKkambjta0WQHnFcPIuy7dqUR2Vt1V6RS7QWkL_PVhJr0TSRjznmv3S0]--></g></svg>