<svg xmlns:xlink="http://www.w3.org/1999/xlink" version="1.1" class="highcharts-root" style="font-family:&quot;Lucida Grande&quot;, &quot;Lucida Sans Unicode&quot;, Arial, Helvetica, sans-serif;font-size:12px;" xmlns="http://www.w3.org/2000/svg" width="800" height="350" viewBox="0 0 800 350"><desc>Created with Highcharts 8.2.0</desc><defs><clipPath id="highcharts-nci08qi-200-"><rect x="0" y="0" width="615" height="203" fill="none"></rect></clipPath></defs><rect fill="#ffffff" class="highcharts-background" x="0" y="0" width="800" height="350" rx="0" ry="0"></rect><rect fill="none" class="highcharts-plot-background" x="56" y="60" width="615" height="203"></rect><g class="highcharts-grid highcharts-xaxis-grid" data-z-index="1"><path fill="none" data-z-index="1" class="highcharts-grid-line" d="M 117.5 60 L 117.5 263" opacity="1"></path><path fill="none" data-z-index="1" class="highcharts-grid-line" d="M 178.5 60 L 178.5 263" opacity="1"></path><path fill="none" data-z-index="1" class="highcharts-grid-line" d="M 240.5 60 L 240.5 263" opacity="1"></path><path fill="none" data-z-index="1" class="highcharts-grid-line" d="M 301.5 60 L 301.5 263" opacity="1"></path><path fill="none" data-z-index="1" class="highcharts-grid-line" d="M 363.5 60 L 363.5 263" opacity="1"></path><path fill="none" data-z-index="1" class="highcharts-grid-line" d="M 424.5 60 L 424.5 263" opacity="1"></path><path fill="none" data-z-index="1" class="highcharts-grid-line" d="M 486.5 60 L 486.5 263" opacity="1"></path><path fill="none" data-z-index="1" class="highcharts-grid-line" d="M 547.5 60 L 547.5 263" opacity="1"></path><path fill="none" data-z-index="1" class="highcharts-grid-line" d="M 609.5 60 L 609.5 263" opacity="1"></path><path fill="none" data-z-index="1" class="highcharts-grid-line" d="M 670.5 60 L 670.5 263" opacity="1"></path><path fill="none" data-z-index="1" class="highcharts-grid-line" d="M 55.5 60 L 55.5 263" opacity="1"></path></g><g class="highcharts-grid highcharts-yaxis-grid" data-z-index="1"><path fill="none" stroke="#e6e6e6" stroke-width="1" data-z-index="1" class="highcharts-grid-line" d="M 56 263.5 L 671 263.5" opacity="1"></path><path fill="none" stroke="#e6e6e6" stroke-width="1" data-z-index="1" class="highcharts-grid-line" d="M 56 195.5 L 671 195.5" opacity="1"></path><path fill="none" stroke="#e6e6e6" stroke-width="1" data-z-index="1" class="highcharts-grid-line" d="M 56 128.5 L 671 128.5" opacity="1"></path><path fill="none" stroke="#e6e6e6" stroke-width="1" data-z-index="1" class="highcharts-grid-line" d="M 56 59.5 L 671 59.5" opacity="1"></path></g><rect fill="none" class="highcharts-plot-border" data-z-index="1" x="56" y="60" width="615" height="203"></rect><g class="highcharts-axis highcharts-xaxis" data-z-index="2"><path fill="none" class="highcharts-axis-line" stroke="#ccd6eb" stroke-width="1" data-z-index="7" d="M 56 263.5 L 671 263.5"></path></g><g class="highcharts-axis highcharts-yaxis" data-z-index="2"><text x="24.03125" data-z-index="7" text-anchor="middle" transform="translate(0,0) rotate(270 24.03125 161.5)" class="highcharts-axis-title" style="color:#666666;fill:#666666;" y="161.5"><tspan>GB/s</tspan></text><path fill="none" class="highcharts-axis-line" data-z-index="7" d="M 56 60 L 56 263"></path></g><g class="highcharts-series-group" data-z-index="3"><g class="highcharts-series highcharts-series-0 highcharts-column-series highcharts-color-0" data-z-index="0.1" opacity="1" transform="translate(56,60) scale(1 1)" clip-path="url(#highcharts-nci08qi-200-)"><rect x="6" y="157" width="12" height="47" fill="#7cb5ec" opacity="1" class="highcharts-point highcharts-color-0"></rect><rect x="68" y="81" width="12" height="123" fill="#7cb5ec" opacity="1" class="highcharts-point highcharts-color-0"></rect><rect x="129" y="147" width="12" height="57" fill="#7cb5ec" opacity="1" class="highcharts-point highcharts-color-0"></rect><rect x="191" y="81" width="12" height="123" fill="#7cb5ec" opacity="1" class="highcharts-point highcharts-color-0"></rect><rect x="252" y="94" width="12" height="110" fill="#7cb5ec" opacity="1" class="highcharts-point highcharts-color-0"></rect><rect x="314" y="167" width="12" height="37" fill="#7cb5ec" opacity="1" class="highcharts-point highcharts-color-0"></rect><rect x="375" y="165" width="12" height="39" fill="#7cb5ec" opacity="1" class="highcharts-point highcharts-color-0"></rect><rect x="437" y="65" width="12" height="139" fill="#7cb5ec" opacity="1" class="highcharts-point highcharts-color-0"></rect><rect x="498" y="86" width="12" height="118" fill="#7cb5ec" opacity="1" class="highcharts-point highcharts-color-0"></rect><rect x="560" y="122" width="12" height="82" fill="#7cb5ec" opacity="1" class="highcharts-point highcharts-color-0"></rect></g><g class="highcharts-markers highcharts-series-0 highcharts-column-series highcharts-color-0" data-z-index="0.1" opacity="1" transform="translate(56,60) scale(1 1)" clip-path="none"></g><g class="highcharts-series highcharts-series-1 highcharts-column-series highcharts-color-1" data-z-index="0.1" opacity="1" transform="translate(56,60) scale(1 1)" clip-path="url(#highcharts-nci08qi-200-)"><rect x="18" y="166" width="13" height="38" fill="#434348" opacity="1" class="highcharts-point highcharts-color-1"></rect><rect x="80" y="119" width="12" height="85" fill="#434348" opacity="1" class="highcharts-point highcharts-color-1"></rect><rect x="141" y="165" width="13" height="39" fill="#434348" opacity="1" class="highcharts-point highcharts-color-1"></rect><rect x="203" y="121" width="12" height="83" fill="#434348" opacity="1" class="highcharts-point highcharts-color-1"></rect><rect x="264" y="120" width="13" height="84" fill="#434348" opacity="1" class="highcharts-point highcharts-color-1"></rect><rect x="326" y="177" width="12" height="27" fill="#434348" opacity="1" class="highcharts-point highcharts-color-1"></rect><rect x="387" y="175" width="13" height="29" fill="#434348" opacity="1" class="highcharts-point highcharts-color-1"></rect><rect x="449" y="110" width="12" height="94" fill="#434348" opacity="1" class="highcharts-point highcharts-color-1"></rect><rect x="510" y="122" width="13" height="82" fill="#434348" opacity="1" class="highcharts-point highcharts-color-1"></rect><rect x="572" y="143" width="12" height="61" fill="#434348" opacity="1" class="highcharts-point highcharts-color-1"></rect></g><g class="highcharts-markers highcharts-series-1 highcharts-column-series highcharts-color-1" data-z-index="0.1" opacity="1" transform="translate(56,60) scale(1 1)" clip-path="none"></g><g class="highcharts-series highcharts-series-2 highcharts-column-series highcharts-color-2" data-z-index="0.1" opacity="1" transform="translate(56,60) scale(1 1)" clip-path="url(#highcharts-nci08qi-200-)"><rect x="31" y="175" width="12" height="29" fill="#90ed7d" opacity="1" class="highcharts-point highcharts-color-2"></rect><rect x="92" y="124" width="13" height="80" fill="#90ed7d" opacity="1" class="highcharts-point highcharts-color-2"></rect><rect x="154" y="169" width="12" height="35" fill="#90ed7d" opacity="1" class="highcharts-point highcharts-color-2"></rect><rect x="215" y="127" width="13" height="77" fill="#90ed7d" opacity="1" class="highcharts-point highcharts-color-2"></rect><rect x="277" y="116" width="12" height="88" fill="#90ed7d" opacity="1" class="highcharts-point highcharts-color-2"></rect><rect x="338" y="183" width="13" height="21" fill="#90ed7d" opacity="1" class="highcharts-point highcharts-color-2"></rect><rect x="400" y="183" width="12" height="21" fill="#90ed7d" opacity="1" class="highcharts-point highcharts-color-2"></rect><rect x="461" y="133" width="13" height="71" fill="#90ed7d" opacity="1" class="highcharts-point highcharts-color-2"></rect><rect x="523" y="129" width="12" height="75" fill="#90ed7d" opacity="1" class="highcharts-point highcharts-color-2"></rect><rect x="584" y="170" width="13" height="34" fill="#90ed7d" opacity="1" class="highcharts-point highcharts-color-2"></rect></g><g class="highcharts-markers highcharts-series-2 highcharts-column-series highcharts-color-2" data-z-index="0.1" opacity="1" transform="translate(56,60) scale(1 1)" clip-path="none"></g><g class="highcharts-series highcharts-series-3 highcharts-column-series highcharts-color-3" data-z-index="0.1" opacity="1" transform="translate(56,60) scale(1 1)" clip-path="url(#highcharts-nci08qi-200-)"><rect x="43" y="197" width="12" height="7" fill="#f7a35c" opacity="1" class="highcharts-point highcharts-color-3"></rect><rect x="105" y="182" width="12" height="22" fill="#f7a35c" opacity="1" class="highcharts-point highcharts-color-3"></rect><rect x="166" y="196" width="12" height="8" fill="#f7a35c" opacity="1" class="highcharts-point highcharts-color-3"></rect><rect x="228" y="195" width="12" height="9" fill="#f7a35c" opacity="1" class="highcharts-point highcharts-color-3"></rect><rect x="289" y="195" width="12" height="9" fill="#f7a35c" opacity="1" class="highcharts-point highcharts-color-3"></rect><rect x="351" y="198" width="12" height="6" fill="#f7a35c" opacity="1" class="highcharts-point highcharts-color-3"></rect><rect x="412" y="197" width="12" height="7" fill="#f7a35c" opacity="1" class="highcharts-point highcharts-color-3"></rect><rect x="474" y="194" width="12" height="10" fill="#f7a35c" opacity="1" class="highcharts-point highcharts-color-3"></rect><rect x="535" y="194" width="12" height="10" fill="#f7a35c" opacity="1" class="highcharts-point highcharts-color-3"></rect><rect x="597" y="195" width="12" height="9" fill="#f7a35c" opacity="1" class="highcharts-point highcharts-color-3"></rect></g><g class="highcharts-markers highcharts-series-3 highcharts-column-series highcharts-color-3" data-z-index="0.1" opacity="1" transform="translate(56,60) scale(1 1)" clip-path="none"></g></g><text x="400" text-anchor="middle" class="highcharts-title" data-z-index="4" style="color:#333333;font-size:18px;fill:#333333;" y="24"><tspan>JSON reader</tspan></text><text x="400" text-anchor="middle" class="highcharts-subtitle" data-z-index="4" style="color:#666666;fill:#666666;" y="45"><tspan>gigabytes per second (larger is better)</tspan></text><text x="10" text-anchor="start" class="highcharts-caption" data-z-index="4" style="color:#666666;fill:#666666;" y="347"></text><g class="highcharts-legend" data-z-index="7" transform="translate(683,139)"><rect fill="none" class="highcharts-legend-box" rx="0" ry="0" x="0" y="0" width="107" height="67" visibility="visible"></rect><g data-z-index="1"><g><g class="highcharts-legend-item highcharts-column-series highcharts-color-0 highcharts-series-0" data-z-index="1" transform="translate(8,3)"><text x="21" style="color:#333333;cursor:pointer;font-size:12px;font-weight:bold;fill:#333333;" text-anchor="start" data-z-index="2" y="15"><tspan>yyjson_fast</tspan></text><rect x="2" y="4" width="12" height="12" fill="#7cb5ec" rx="6" ry="6" class="highcharts-point" data-z-index="3"></rect></g><g class="highcharts-legend-item highcharts-column-series highcharts-color-1 highcharts-series-1" data-z-index="1" transform="translate(8,17)"><text x="21" y="15" style="color:#333333;cursor:pointer;font-size:12px;font-weight:bold;fill:#333333;" text-anchor="start" data-z-index="2"><tspan>yyjson</tspan></text><rect x="2" y="4" width="12" height="12" fill="#434348" rx="6" ry="6" class="highcharts-point" data-z-index="3"></rect></g><g class="highcharts-legend-item highcharts-column-series highcharts-color-2 highcharts-series-2" data-z-index="1" transform="translate(8,31)"><text x="21" y="15" style="color:#333333;cursor:pointer;font-size:12px;font-weight:bold;fill:#333333;" text-anchor="start" data-z-index="2"><tspan>simdjson</tspan></text><rect x="2" y="4" width="12" height="12" fill="#90ed7d" rx="6" ry="6" class="highcharts-point" data-z-index="3"></rect></g><g class="highcharts-legend-item highcharts-column-series highcharts-color-3 highcharts-series-3" data-z-index="1" transform="translate(8,45)"><text x="21" y="15" style="color:#333333;cursor:pointer;font-size:12px;font-weight:bold;fill:#333333;" text-anchor="start" data-z-index="2"><tspan>rapidjson</tspan></text><rect x="2" y="4" width="12" height="12" fill="#f7a35c" rx="6" ry="6" class="highcharts-point" data-z-index="3"></rect></g></g></g></g><g class="highcharts-axis-labels highcharts-xaxis-labels" data-z-index="7"><text x="89.34272486435067" style="color:#666666;cursor:default;font-size:11px;fill:#666666;" text-anchor="end" transform="translate(0,0) rotate(-45 89.34272486435067 279)" y="279" opacity="1">canada</text><text x="150.84272486435069" style="color:#666666;cursor:default;font-size:11px;fill:#666666;" text-anchor="end" transform="translate(0,0) rotate(-45 150.84272486435069 279)" y="279" opacity="1">citm_catalog</text><text x="212.34272486435069" style="color:#666666;cursor:default;font-size:11px;fill:#666666;" text-anchor="end" transform="translate(0,0) rotate(-45 212.34272486435069 279)" y="279" opacity="1">fgo</text><text x="273.84272486435066" style="color:#666666;cursor:default;font-size:11px;fill:#666666;" text-anchor="end" transform="translate(0,0) rotate(-45 273.84272486435066 279)" y="279" opacity="1">github_events</text><text x="335.34272486435066" style="color:#666666;cursor:default;font-size:11px;fill:#666666;" text-anchor="end" transform="translate(0,0) rotate(-45 335.34272486435066 279)" y="279" opacity="1">gsoc-2018</text><text x="396.84272486435066" style="color:#666666;cursor:default;font-size:11px;fill:#666666;" text-anchor="end" transform="translate(0,0) rotate(-45 396.84272486435066 279)" y="279" opacity="1">lottie</text><text x="458.34272486435066" style="color:#666666;cursor:default;font-size:11px;fill:#666666;" text-anchor="end" transform="translate(0,0) rotate(-45 458.34272486435066 279)" y="279" opacity="1">otfcc</text><text x="519.8427248643507" style="color:#666666;cursor:default;font-size:11px;fill:#666666;" text-anchor="end" transform="translate(0,0) rotate(-45 519.8427248643507 279)" y="279" opacity="1">poet</text><text x="581.3427248643507" style="color:#666666;cursor:default;font-size:11px;fill:#666666;" text-anchor="end" transform="translate(0,0) rotate(-45 581.3427248643507 279)" y="279" opacity="1">twitter</text><text x="642.8427248643507" style="color:#666666;cursor:default;font-size:11px;fill:#666666;" text-anchor="end" transform="translate(0,0) rotate(-45 642.8427248643507 279)" y="279" opacity="1">twitterescaped</text></g><g class="highcharts-axis-labels highcharts-yaxis-labels" data-z-index="7"><text x="41" style="color:#666666;cursor:default;font-size:11px;fill:#666666;" text-anchor="end" transform="translate(0,0)" y="268" opacity="1">0</text><text x="41" style="color:#666666;cursor:default;font-size:11px;fill:#666666;" text-anchor="end" transform="translate(0,0)" y="200" opacity="1">2</text><text x="41" style="color:#666666;cursor:default;font-size:11px;fill:#666666;" text-anchor="end" transform="translate(0,0)" y="132" opacity="1">4</text><text x="41" style="color:#666666;cursor:default;font-size:11px;fill:#666666;" text-anchor="end" transform="translate(0,0)" y="65" opacity="1">6</text></g></svg>