<?xml version="1.0" encoding="UTF-8"?>
<svg width="556px" height="93px" viewBox="0 0 556 93" version="1.1" xmlns="http://www.w3.org/2000/svg" xmlns:xlink="http://www.w3.org/1999/xlink">
    <title>struct</title>
    <g id="yyjson_val-struct" stroke="none" stroke-width="1" fill="none" fill-rule="evenodd">
        <g id="mval">
            <rect id="bit1" stroke="#FFFFFF" fill-opacity="0.503387238" fill="#FFC700" x="3.5" y="22.5" width="23" height="42"></rect>
            <g id="bit7" transform="translate(26.000000, 22.000000)" fill="#8BFF00" fill-opacity="0.5" stroke="#FFFFFF">
                <rect id="bit" x="0.5" y="0.5" width="23" height="42"></rect>
                <rect id="bit" x="23.5" y="0.5" width="23" height="42"></rect>
                <rect id="bit" x="46.5" y="0.5" width="23" height="42"></rect>
                <rect id="bit" x="69.5" y="0.5" width="23" height="42"></rect>
                <rect id="bit" x="92.5" y="0.5" width="23" height="42"></rect>
                <rect id="bit" x="115.5" y="0.5" width="23" height="42"></rect>
                <rect id="bit" x="138.5" y="0.5" width="23" height="42"></rect>
            </g>
            <g id="bit8" transform="translate(187.000000, 22.000000)" fill="#00C6FF" fill-opacity="0.498142483" stroke="#FFFFFF">
                <rect id="bit" x="0.5" y="0.5" width="23" height="42"></rect>
                <rect id="bit" x="23.5" y="0.5" width="23" height="42"></rect>
                <rect id="bit" x="46.5" y="0.5" width="23" height="42"></rect>
                <rect id="bit" x="69.5" y="0.5" width="23" height="42"></rect>
                <rect id="bit" x="92.5" y="0.5" width="23" height="42"></rect>
                <rect id="bit" x="115.5" y="0.5" width="23" height="42"></rect>
                <rect id="bit" x="138.5" y="0.5" width="23" height="42"></rect>
                <rect id="bit" x="161.5" y="0.5" width="23" height="42"></rect>
            </g>
            <g id="bit8" transform="translate(371.000000, 22.000000)" fill="#000000" fill-opacity="0.2" stroke="#FFFFFF">
                <rect id="bit" x="0.5" y="0.5" width="23" height="42"></rect>
                <rect id="bit" x="23.5" y="0.5" width="23" height="42"></rect>
                <rect id="bit" x="46.5" y="0.5" width="23" height="42"></rect>
                <rect id="bit" x="69.5" y="0.5" width="23" height="42"></rect>
                <rect id="bit" x="92.5" y="0.5" width="23" height="42"></rect>
                <rect id="bit" x="115.5" y="0.5" width="23" height="42"></rect>
                <rect id="bit" x="138.5" y="0.5" width="23" height="42"></rect>
                <rect id="bit" x="161.5" y="0.5" width="23" height="42"></rect>
            </g>
            <g id="path" transform="translate(4.500000, 67.000000)" stroke="#979797">
                <path d="M0,0 C0,2 1.5,3.5 3.5,3.5 C4.83333333,3.5 6.5,3.5 8.5,3.5 L10.5,6.5 L12.5,3.5 C14.5,3.5 16.1666667,3.5 17.5,3.5 C19.5,3.5 21,2 21,0" id="path1"></path>
                <path d="M23,0 C23,2 24.5,3.5 26.5,3.5 C27.8333333,3.5 52.5,3.5 100.5,3.5 L102.5,6.5 L104.5,3.5 C152.5,3.5 177.166667,3.5 178.5,3.5 C180.5,3.5 182,2 182,0" id="path7"></path>
                <path d="M184,0 C184,2 185.5,3.5 187.5,3.5 C188.833333,3.5 217.166667,3.5 272.5,3.5 L275,6.5 L277.5,3.5 C332.833333,3.5 361.166667,3.5 362.5,3.5 C364.5,3.5 366,2 366,0" id="path8"></path>
                <path d="M368,0 C368,2 369.5,3.5 371.5,3.5 C372.833333,3.5 401.166667,3.5 456.5,3.5 L459,6.5 L461.5,3.5 C516.833333,3.5 545.166667,3.5 546.5,3.5 C548.5,3.5 550,2 550,0" id="path8"></path>
            </g>
            <g id="len" transform="translate(0.000000, 79.000000)" fill="#979797" font-family="Menlo-Regular, Menlo" font-size="12" font-weight="normal">
                <text id="8bit">
                    <tspan x="0" y="11">8bit</tspan>
                </text>
                <text id="56bit">
                    <tspan x="89" y="11">56bit</tspan>
                </text>
                <text id="64bit">
                    <tspan x="263" y="11">64bit</tspan>
                </text>
                <text id="64bit">
                    <tspan x="447" y="11">64bit</tspan>
                </text>
            </g>
            <g id="desc" transform="translate(1.000000, 0.000000)" fill="#000000" font-family="Menlo-Regular, Menlo" font-size="12" font-weight="normal">
                <text id="type">
                    <tspan x="0" y="11">type</tspan>
                </text>
                <text id="length">
                    <tspan x="85" y="11">length</tspan>
                </text>
                <text id="payload">
                    <tspan x="255" y="11">payload</tspan>
                </text>
                <text id="next-pointer">
                    <tspan x="422" y="11">next pointer</tspan>
                </text>
            </g>
        </g>
    </g>
</svg>