<?xml version="1.0" encoding="UTF-8" standalone="no"?>
<svg
   xmlns:dc="http://purl.org/dc/elements/1.1/"
   xmlns:cc="http://creativecommons.org/ns#"
   xmlns:rdf="http://www.w3.org/1999/02/22-rdf-syntax-ns#"
   xmlns:svg="http://www.w3.org/2000/svg"
   xmlns="http://www.w3.org/2000/svg"
   version="1.1"
   id="Layer_1"
   x="0px"
   y="0px"
   viewBox="0 0 24.166666 7.75"
   style="enable-background:new 0 0 24.166666 7.75;"
   xml:space="preserve"><defs
     id="defs28" /><path
     id="XMLID_1265_"
     d="m 21.734522,2.3422511 c 0.679743,0 1.213861,0.2207577 1.601189,0.6619713 0.387922,0.441505 0.581882,1.0737643 0.581882,1.8967886 0,0.8110728 -0.192213,1.434608 -0.577219,1.8699918 -0.384422,0.4351025 -0.92029,0.652945 -1.605852,0.652945 -0.679731,0 -1.21385,-0.2178426 -1.601189,-0.652945 C 19.745422,6.335619 19.55146,5.7120838 19.55146,4.901011 c 0,-0.8230243 0.195118,-1.4552836 0.585955,-1.8967886 0.390835,-0.4412136 0.923206,-0.6619713 1.597107,-0.6619713 z m 0,0.6619713 c -0.429274,0 -0.758948,0.1610527 -0.98844,0.4831476 -0.230064,0.3221054 -0.34481,0.7933121 -0.34481,1.413641 0,0.6144986 0.114746,1.0781369 0.34481,1.3912058 0.229492,0.3130794 0.559166,0.4697599 0.98844,0.4697599 0.435102,0 0.767691,-0.1566806 0.997766,-0.4697599 0.229483,-0.3130689 0.344229,-0.7767072 0.344229,-1.3912058 0,-0.6203289 -0.114746,-1.0915356 -0.344229,-1.413641 C 22.502212,3.1652751 22.169624,3.0042224 21.734522,3.0042224 Z m -6.988407,2.9973502 c 0,-0.4950891 0.165415,-0.8725266 0.496255,-1.1317205 0.331423,-0.2594957 0.812541,-0.389379 1.445092,-0.389379 h 0.948242 V 4.1673937 c 0,-0.7574892 -0.333742,-1.1360931 -1.001827,-1.1360931 -0.214928,0 -0.439766,0.029712 -0.675661,0.089417 -0.235894,0.059694 -0.451988,0.1342556 -0.648281,0.2236624 L 15.06821,2.7627891 c 0.24464,-0.1371706 0.508499,-0.2428908 0.791573,-0.3177328 0.283075,-0.074259 0.559166,-0.1118312 0.827679,-0.1118312 1.156767,0 1.735735,0.6174138 1.735735,1.8519394 v 3.1313143 h -0.60867 L 17.716085,6.779737 C 17.471457,6.976613 17.211096,7.1286397 16.933256,7.2360983 16.65601,7.3435674 16.392153,7.397151 16.141695,7.397151 c -0.435686,0 -0.777011,-0.1237721 -1.024555,-0.3713164 -0.247544,-0.2475448 -0.371025,-0.5888682 -0.371025,-1.024262 z m 1.544691,0.7336068 c 0.112413,0 0.230074,-0.014845 0.351806,-0.044849 0.121731,-0.029702 0.243464,-0.06844 0.365206,-0.1161933 0.121731,-0.047764 0.235893,-0.1060114 0.343073,-0.1744514 0.106583,-0.068731 0.201529,-0.1418343 0.284813,-0.2193003 V 5.0352669 h -0.855047 c -0.433937,0 -0.750212,0.074561 -0.948837,0.2236619 -0.199197,0.1491117 -0.298212,0.3847256 -0.298212,0.7068205 0,0.5128598 0.252198,0.7694301 0.757198,0.7694301 z M 10.92167,7.3164787 H 10.098646 V 0.4009048 L 10.92167,0.2218 Z m 2.200541,-5.0187852 0.6442,0.4650955 -1.583137,1.9861953 1.833596,2.2008419 -0.634883,0.4921737 -2.165008,-2.648458 z M 4.9566717,6.0015726 c 0,-0.4950891 0.1654148,-0.8725266 0.4968376,-1.1317205 0.3308411,-0.2594957 0.81253,-0.389379 1.4445086,-0.389379 H 7.8468442 V 4.1673937 c 0,-0.7574892 -0.3343267,-1.1360931 -1.0024204,-1.1360931 -0.214345,0 -0.4397559,0.029712 -0.6750679,0.089417 C 5.9334612,3.1804121 5.7173672,3.2549732 5.5204916,3.3443799 L 5.2787666,2.762789 C 5.5234065,2.6256184 5.7872538,2.5198982 6.0709233,2.4450562 6.3539991,2.3707969 6.6300788,2.333225 6.8980179,2.333225 c 1.1573515,0 1.7357359,0.6174138 1.7357359,1.8519394 V 7.3164787 H 8.0256586 L 7.9272246,6.779737 C 7.6825953,6.976613 7.4216523,7.1286397 7.1443973,7.2360983 6.8671398,7.3435674 6.6032925,7.397151 6.3522511,7.397151 5.9171477,7.397151 5.5758248,7.2733789 5.3282795,7.0258346 5.0807352,6.7782898 4.9566717,6.4369664 4.9566717,6.0015726 Z m 1.5446901,0.7336068 c 0.1129971,0 0.2300649,-0.014845 0.3518066,-0.044849 C 6.9749002,6.6606288 7.096632,6.621891 7.2183743,6.5741372 7.340106,6.5263734 7.4548521,6.4681258 7.5614362,6.3996859 7.6686139,6.3309551 7.7635589,6.2578516 7.8468442,6.1803856 V 5.0352669 H 6.9912138 c -0.4333525,0 -0.7496281,0.074561 -0.9488368,0.2236619 -0.1986141,0.1491117 -0.298223,0.3847255 -0.298223,0.7068205 0,0.5128598 0.2522082,0.7694301 0.7572078,0.7694301 z M 1.1322166,7.3164787 H 0.3092028 V 0.4009048 L 1.1322166,0.2218 Z M 3.3333499,2.2976935 3.9775503,2.762789 2.3938308,4.7489843 4.2280097,6.9498262 3.5925438,7.4419999 1.4275248,4.7935419 Z"
     style="fill:#ffcd00;fill-opacity:1" /><metadata
     id="metadata50"><rdf:RDF><cc:Work
         rdf:about=""><dc:title></dc:title><dc:format>image/svg+xml</dc:format><dc:type
           rdf:resource="http://purl.org/dc/dcmitype/StillImage" /></cc:Work></rdf:RDF></metadata></svg>
